<svg width="288" height="288" viewBox="0 0 288 288" fill="none" xmlns="http://www.w3.org/2000/svg">
<rect width="288" height="288" rx="40" fill="#121212"/>
<path d="M90.8491 60.0025C90.95 60.0017 91.0509 60.0008 91.1548 60C91.2656 60.0009 91.3763 60.0017 91.4905 60.0026C91.61 60.0023 91.7296 60.0019 91.8491 60.0013C92.1797 60.0001 92.5101 60.0011 92.8407 60.0024C93.2008 60.0035 93.561 60.0025 93.9212 60.0018C94.5555 60.0009 95.1898 60.0012 95.8241 60.0024C96.7737 60.0042 97.7233 60.0039 98.6729 60.0033C100.291 60.0023 101.909 60.0029 103.527 60.0044C105.168 60.0059 106.808 60.0067 108.449 60.0065C108.552 60.0065 108.656 60.0065 108.763 60.0065C109.29 60.0064 109.818 60.0064 110.346 60.0063C114.168 60.0058 117.991 60.007 121.813 60.0091C122.759 60.0096 123.705 60.0101 124.65 60.0106C124.738 60.0106 124.738 60.0106 124.828 60.0107C127.551 60.0121 130.273 60.0126 132.995 60.0128C133.173 60.0129 133.351 60.0129 133.529 60.0129C134.602 60.013 135.676 60.0131 136.749 60.0132C139.417 60.0134 142.086 60.0138 144.754 60.0142C144.845 60.0142 144.845 60.0142 144.938 60.0142C148.874 60.0148 152.809 60.0159 156.744 60.0173C156.807 60.0173 156.869 60.0174 156.934 60.0174C158.847 60.0181 160.76 60.0188 162.672 60.0196C164.789 60.0204 166.906 60.0212 169.022 60.022C169.118 60.022 169.118 60.022 169.215 60.0221C175.26 60.0243 181.304 60.0257 187.349 60.0267C187.605 60.0268 187.861 60.0268 188.117 60.0269C190.473 60.0273 192.829 60.0277 195.184 60.0281C195.278 60.0281 195.278 60.0281 195.374 60.0282C195.564 60.0282 195.754 60.0282 195.943 60.0283C201.067 60.0291 206.191 60.0301 211.315 60.0311C211.496 60.0312 211.677 60.0312 211.858 60.0312C217.73 60.0324 223.602 60.0338 244.433 60.0404C244.586 60.0404 244.586 60.0404 244.742 60.0405C249.828 60.0422 254.914 60.044 260 60.0459C259.885 60.401 259.758 60.7196 259.579 61.0477C259.53 61.1383 259.481 61.2289 259.43 61.3223C259.352 61.4666 259.352 61.4666 259.271 61.6139C259.216 61.7144 259.162 61.815 259.106 61.9187C258.94 62.2239 258.774 62.5286 258.607 62.8334C258.516 63.0005 258.425 63.1677 258.334 63.3349C258.164 63.6471 257.994 63.9593 257.824 64.2713C257.547 64.7785 257.272 65.2867 256.997 65.795C256.593 66.5424 256.187 67.2888 255.78 68.0346C255.459 68.623 255.14 69.2123 254.821 69.8019C254.417 70.5493 254.011 71.2957 253.604 72.0415C253.283 72.63 252.963 73.2193 252.645 73.8089C252.24 74.5563 251.835 75.3029 251.428 76.0487C251.203 76.4601 250.979 76.8719 250.757 77.2846C250.291 78.151 249.819 79.0134 249.332 79.8683C248.908 80.6113 248.506 81.363 248.114 82.1229C247.818 82.695 247.514 83.2618 247.204 83.8262C246.848 84.4754 246.5 85.1285 246.16 85.7861C245.83 86.4235 245.493 87.0569 245.148 87.6861C244.697 88.5075 244.258 89.3346 243.82 90.1632C243.337 91.0792 242.852 91.9946 242.362 92.9071C242.316 92.9934 242.27 93.0798 242.222 93.1687C241.863 93.8363 241.487 94.4911 241.111 95.1501C231.029 95.1501 220.946 95.1501 210.558 95.1501C210.558 95.1214 210.558 95.0926 210.558 95.063C209.99 95.0607 209.423 95.0592 208.855 95.0582C208.665 95.0578 208.474 95.0572 208.284 95.0564C206.917 95.051 205.551 95.0691 204.185 95.0963C201.828 95.1429 199.472 95.168 197.116 95.1876C197.024 95.1883 196.932 95.1891 196.838 95.1899C195.755 95.1989 194.672 95.2076 193.589 95.2162C191.488 95.233 189.387 95.2508 187.286 95.2686C187.048 95.2706 186.809 95.2726 186.571 95.2746C180.668 95.3245 174.766 95.3785 168.864 95.4344C168.75 95.4355 168.75 95.4355 168.633 95.4366C168.557 95.4373 168.481 95.438 168.402 95.4387C168.326 95.4395 168.25 95.4402 168.171 95.4409C168.018 95.4424 167.864 95.4438 167.711 95.4453C166.567 95.4561 165.424 95.4668 164.281 95.4773C162.969 95.4895 161.657 95.5018 160.346 95.5144C159.671 95.5208 158.996 95.5272 158.321 95.5334C155.626 95.5579 152.93 95.5845 150.236 95.6728C152.332 96.0649 154.428 96.4568 156.525 96.8487C156.605 96.8637 156.685 96.8787 156.768 96.8941C161.516 97.7817 166.265 98.6679 171.014 99.5518C172.035 99.7418 173.056 99.932 174.078 100.122C174.769 100.251 175.46 100.38 176.15 100.508C176.225 100.522 176.3 100.536 176.377 100.55C178.35 100.918 180.323 101.284 182.296 101.649C183.094 101.797 183.892 101.945 184.69 102.093C185.36 102.217 186.03 102.341 186.7 102.464C187.102 102.538 187.503 102.612 187.904 102.687C188.088 102.721 188.271 102.755 188.454 102.788C188.701 102.833 188.947 102.879 189.194 102.925C189.265 102.938 189.337 102.951 189.411 102.965C189.719 103.023 189.925 103.074 190.19 103.251C189.641 104.314 189.085 105.372 188.51 106.42C188.156 107.068 187.806 107.718 187.459 108.369C187.347 108.577 187.236 108.785 187.125 108.993C187.097 109.044 187.07 109.096 187.042 109.149C186.605 109.965 186.166 110.78 185.727 111.594C185.474 112.065 185.22 112.536 184.967 113.007C184.865 113.196 184.764 113.385 184.662 113.573C184.612 113.667 184.562 113.76 184.51 113.856C182.834 116.97 182.834 116.97 182.682 117.254C182.58 117.442 182.479 117.631 182.377 117.82C182.124 118.29 181.872 118.76 181.619 119.229C181.094 120.203 180.571 121.178 180.049 122.153C179.477 123.222 178.903 124.29 178.328 125.357C178.075 125.828 177.821 126.299 177.568 126.77C177.466 126.959 177.365 127.147 177.263 127.336C177.213 127.43 177.163 127.523 177.111 127.619C172.084 136.962 167.057 146.304 155.785 167.253C155.683 167.442 155.582 167.631 155.48 167.82C155.227 168.289 154.975 168.759 154.722 169.229C154.197 170.203 153.674 171.177 153.152 172.153C152.58 173.222 152.006 174.29 151.431 175.357C151.178 175.828 150.924 176.299 150.671 176.77C150.569 176.958 150.468 177.147 150.366 177.336C150.316 177.429 150.266 177.523 150.214 177.619C140.16 196.303 140.16 196.303 128.888 217.253C128.786 217.441 128.685 217.63 128.583 217.819C128.33 218.289 128.078 218.759 127.825 219.228C127.3 220.202 126.777 221.177 126.255 222.152C125.734 223.125 125.213 224.097 124.689 225.068C124.501 225.417 124.314 225.767 124.126 226.116C124.013 226.328 123.899 226.54 123.785 226.752C123.705 226.903 123.624 227.053 123.544 227.204C123.471 227.339 123.471 227.339 123.397 227.477C123.354 227.557 123.311 227.637 123.267 227.72C123.165 227.901 123.165 227.901 123.078 227.989C122.912 227.997 122.745 227.999 122.579 227.999C122.47 228 122.361 228 122.248 228C122.125 228 122.002 228 121.879 227.999C121.749 227.999 121.619 227.999 121.489 228C121.129 228 120.769 228 120.409 227.999C120.018 227.999 119.628 227.999 119.237 227.999C118.552 227.999 117.866 227.999 117.181 227.999C116.161 227.998 115.142 227.998 114.123 227.998C112.408 227.999 110.694 227.998 108.979 227.998C107.281 227.997 105.582 227.997 103.884 227.997C103.779 227.997 103.673 227.997 103.564 227.997C103.029 227.997 102.493 227.997 101.958 227.997C98.1609 227.997 94.364 227.996 90.5672 227.995C86.8778 227.994 83.1885 227.994 79.4991 227.993C79.3854 227.993 79.2718 227.993 79.1547 227.993C78.0134 227.993 76.8721 227.993 75.7308 227.993C73.4056 227.993 71.0805 227.993 68.7553 227.992C68.6484 227.992 68.5415 227.992 68.4314 227.992C61.2876 227.991 54.1438 227.99 47 227.989C47.1117 227.765 47.2235 227.541 47.3353 227.317C47.3668 227.254 47.3983 227.19 47.4307 227.125C47.6395 226.707 47.8511 226.291 48.0704 225.878C48.1013 225.82 48.1323 225.761 48.1641 225.701C48.2619 225.516 48.3599 225.331 48.458 225.147C48.5275 225.015 48.5971 224.884 48.6666 224.753C49.0765 223.98 49.491 223.211 49.9119 222.444C50.2971 221.74 50.6724 221.032 51.0476 220.323C51.4639 219.537 51.8818 218.751 52.3098 217.971C52.7337 217.198 53.1483 216.42 53.561 215.641C54.1638 214.503 54.7713 213.368 55.3827 212.235C55.6335 211.77 55.8839 211.305 56.1343 210.839C56.1845 210.746 56.2346 210.653 56.2862 210.557C56.8775 209.458 57.4661 208.358 58.0548 207.257C58.7419 205.973 59.4297 204.688 60.1204 203.406C60.492 202.716 60.8622 202.025 61.2319 201.334C61.7015 200.456 62.1726 199.579 62.6447 198.702C63.0163 198.012 63.3865 197.321 63.7562 196.63C64.1759 195.845 64.5965 195.061 65.0184 194.278C65.6588 193.089 66.2962 191.898 66.9334 190.707C67.6205 189.422 68.3083 188.138 68.999 186.856C69.3706 186.165 69.7408 185.475 70.1105 184.783C70.5302 183.999 70.9508 183.215 71.3727 182.432C72.0131 181.242 72.6506 180.051 73.2877 178.86C73.9748 177.576 74.6626 176.292 75.3533 175.009C75.7249 174.319 76.0951 173.628 76.4649 172.937C76.9345 172.059 77.4056 171.182 77.8776 170.305C78.2492 169.615 78.6195 168.924 78.9892 168.233C79.4088 167.449 79.8295 166.665 80.2513 165.881C80.8918 164.692 81.5292 163.501 82.1663 162.31C82.8534 161.025 83.5413 159.741 84.232 158.459C84.6035 157.768 84.9738 157.078 85.3435 156.386C85.8131 155.509 86.2842 154.631 86.7563 153.755C87.1278 153.065 87.4981 152.374 87.8678 151.683C88.2875 150.898 88.7081 150.114 89.13 149.331C89.7704 148.141 90.4078 146.951 91.045 145.759C91.7321 144.475 92.4199 143.191 93.1106 141.908C93.4822 141.218 93.8524 140.527 94.2221 139.836C94.6418 139.052 95.0624 138.268 95.4843 137.484C96.1247 136.295 96.7621 135.104 97.3993 133.913C98.0864 132.628 98.7742 131.344 99.4649 130.062C99.8365 129.372 100.207 128.681 100.576 127.99C101.046 127.112 101.517 126.235 101.989 125.358C102.361 124.668 102.731 123.977 103.101 123.286C103.52 122.501 103.941 121.717 104.363 120.934C105.003 119.745 105.641 118.554 106.278 117.362C106.965 116.078 107.653 114.794 108.344 113.511C108.715 112.821 109.085 112.13 109.455 111.439C109.925 110.561 110.396 109.684 110.868 108.808C111.239 108.117 111.61 107.427 111.979 106.735C112.399 105.951 112.82 105.167 113.242 104.383C113.882 103.194 114.519 102.003 115.157 100.812C115.81 99.5902 116.464 98.3685 117.12 97.1481C117.194 97.0123 117.194 97.0123 117.268 96.8737C117.338 96.7439 117.338 96.7439 117.409 96.6115C117.449 96.5372 117.489 96.4629 117.53 96.3863C117.754 95.9737 117.979 95.562 118.203 95.1501C95.4817 95.1501 72.7602 95.1501 49.3502 95.1501C49.4595 94.8222 49.5966 94.7413 49.8671 94.5295C50.1973 94.2659 50.5183 93.9982 50.83 93.7129C51.119 93.4495 51.413 93.1967 51.7168 92.9507C52.1641 92.5882 52.599 92.2131 53.033 91.8349C53.432 91.4875 53.834 91.1441 54.2383 90.803C54.5835 90.5116 54.9268 90.2181 55.2693 89.9237C55.706 89.5485 56.1444 89.1754 56.5842 88.8039C56.9306 88.5109 57.2754 88.216 57.6195 87.9202C58.0562 87.545 58.4946 87.172 58.9344 86.8004C59.2809 86.5074 59.6256 86.2125 59.9698 85.9168C60.4064 85.5415 60.8448 85.1685 61.2846 84.797C61.6311 84.504 61.9758 84.209 62.32 83.9133C62.7566 83.5381 63.1951 83.165 63.6348 82.7935C63.9813 82.5005 64.3261 82.2056 64.6702 81.9098C65.1069 81.5346 65.5453 81.1616 65.9851 80.79C66.3315 80.497 66.6763 80.2021 67.0204 79.9064C67.4571 79.5311 67.8955 79.1581 68.3353 78.7866C68.6818 78.4936 69.0265 78.1986 69.3707 77.9029C69.8073 77.5277 70.2457 77.1547 70.6855 76.7831C71.032 76.4901 71.3767 76.1952 71.7209 75.8994C72.1575 75.5242 72.596 75.1512 73.0357 74.7796C73.3822 74.4866 73.727 74.1917 74.0711 73.896C74.5078 73.5207 74.9462 73.1477 75.386 72.7762C75.7324 72.4832 76.0772 72.1882 76.4213 71.8925C76.858 71.5173 77.2964 71.1443 77.7362 70.7727C78.0827 70.4797 78.4274 70.1848 78.7716 69.889C79.2082 69.5138 79.6466 69.1408 80.0864 68.7692C80.4329 68.4762 80.7776 68.1813 81.1218 67.8856C81.5584 67.5103 81.9969 67.1373 82.4366 66.7658C82.7831 66.4728 83.1279 66.1778 83.472 65.8821C83.9087 65.5069 84.3471 65.1339 84.7869 64.7623C85.1333 64.4693 85.4781 64.1744 85.8222 63.8786C86.2589 63.5034 86.6973 63.1304 87.1371 62.7588C87.4836 62.4658 87.8283 62.1709 88.1725 61.8752C88.5795 61.5256 88.9873 61.1769 89.3965 60.8299C89.4421 60.7911 89.4878 60.7524 89.5348 60.7125C89.6606 60.606 89.7869 60.5001 89.9134 60.3944C89.98 60.3335 90.0465 60.2726 90.1151 60.2099C90.3877 60.0185 90.5199 60.0024 90.8491 60.0025Z" fill="white"/>
</svg>
