          <svg
            version="1.1"
            xmlns="http://www.w3.org/2000/svg"
            width="3282"
            height="1420"
          >
            <path
              d="M0 0 C32.01 0 64.02 0 97 0 C97 7.92 97 15.84 97 24 C101.09510986 23.97643433 101.09510986 23.97643433 105.27294922 23.95239258 C114.44490367 23.90196358 123.61686543 23.86926492 132.78892326 23.84456348 C138.33250324 23.82911881 143.87593748 23.80828563 149.41943359 23.77368164 C231.96382897 23.27253175 317.28526683 34.11042077 380 93 C380.78914795 93.73814941 380.78914795 93.73814941 381.59423828 94.49121094 C391.19017627 103.54126392 399.32720453 113.28296833 407 124 C407.44827148 124.61955566 407.89654297 125.23911133 408.35839844 125.87744141 C420.26224271 142.47163461 429.03409144 160.85678927 436 180 C436.30389648 180.82935059 436.60779297 181.65870117 436.92089844 182.51318359 C458.66246309 242.62153283 457.15926016 306.43820022 457.13166834 369.41405565 C457.12841262 377.31866287 457.13110288 385.22326569 457.13387203 393.12787271 C457.13910488 408.6097284 457.13869461 424.09157994 457.13579312 439.57343602 C457.13326662 453.12276964 457.13262593 466.67210174 457.13381577 480.22143555 C457.13393034 481.57533529 457.13393034 481.57533529 457.13404724 482.95658654 C457.13435863 486.62154221 457.13467704 490.28649787 457.135007 493.95145354 C457.13805847 528.25468421 457.13530452 562.55791225 457.1299101 596.86114252 C457.12516534 627.26420059 457.12559 657.66725447 457.13037109 688.0703125 C457.13573848 722.31520909 457.13784197 756.56010336 457.13475883 790.80500031 C457.13443817 794.46285502 457.13412532 798.12070974 457.13381577 801.77856445 C457.13373669 802.67906562 457.13365761 803.57956679 457.13357614 804.50735587 C457.13244392 818.04030494 457.13375908 831.57325233 457.13629532 845.10620117 C457.13916812 860.51072299 457.13841111 875.91524004 457.13301457 891.31976128 C457.13035579 899.16578301 457.12922778 907.01179696 457.13266373 914.8578186 C457.17014793 1006.75037788 457.03403457 1108.22359558 389.47265625 1179.3515625 C387.70318605 1181.24682442 386.04378411 1183.13127883 384.40625 1185.1328125 C381.25876714 1188.88322227 377.7343244 1191.85365968 374 1195 C373.15824219 1195.74121094 372.31648438 1196.48242188 371.44921875 1197.24609375 C333.60405737 1229.96148222 285.5417172 1245.93808175 236.875 1253.75 C235.65079346 1253.94883789 234.42658691 1254.14767578 233.1652832 1254.35253906 C211.61155064 1257.63750765 190.07517631 1258.30356786 168.3061018 1258.27610838 C164.5594446 1258.27359705 160.81281034 1258.28270892 157.06616211 1258.29014587 C149.75945229 1258.30277622 142.45277942 1258.30470122 135.14606053 1258.30234561 C129.19343382 1258.30054861 123.24081815 1258.30234136 117.28819275 1258.30657005 C116.43477093 1258.30716524 115.58134912 1258.30776043 114.70206603 1258.30837366 C112.96722225 1258.30958566 111.23237847 1258.31079979 109.49753469 1258.31201603 C93.29353574 1258.32284724 77.08955769 1258.3207505 60.88555759 1258.31463119 C46.13912862 1258.30946935 31.39276585 1258.32070604 16.64634997 1258.33972941 C1.42190237 1258.35921535 -13.80251408 1258.3673449 -29.0269742 1258.36360615 C-37.5410305 1258.36170987 -46.05503057 1258.36402536 -54.56907654 1258.37832069 C-61.81982995 1258.39037398 -69.07049254 1258.39148668 -76.32124752 1258.37953053 C-80.0033221 1258.37373687 -83.6852318 1258.3722687 -87.36729431 1258.38453293 C-166.34903639 1258.62902749 -244.41382369 1240.70193378 -303 1185 C-303.65226562 1184.38898438 -304.30453125 1183.77796875 -304.9765625 1183.1484375 C-318.4018023 1170.21361742 -328.78830677 1154.09599792 -338 1138 C-338.65613281 1136.87722656 -339.31226563 1135.75445313 -339.98828125 1134.59765625 C-369.8348086 1081.42418367 -375.56918533 1017.76445978 -375 958 C-386.55 958 -398.1 958 -410 958 C-410 932.59 -410 907.18 -410 881 C-398.45 881 -386.9 881 -375 881 C-375.00184359 878.00241293 -375.00368717 875.00482586 -375.00558662 871.91640282 C-375.03765159 819.40493403 -375.06712197 766.89346438 -375.08468628 714.38198853 C-375.08496239 713.5586143 -375.08523851 712.73524007 -375.08552299 711.88691512 C-375.09151026 693.98826595 -375.09705042 676.08961667 -375.10213066 658.19096722 C-375.1046251 649.41214219 -375.10721824 640.63331718 -375.10986328 631.85449219 C-375.1101248 630.9809423 -375.11038632 630.10739241 -375.11065576 629.20737131 C-375.11916252 600.94649827 -375.13417316 572.68563328 -375.15259444 544.42476511 C-375.17150664 515.3576302 -375.18378175 486.29049973 -375.18782998 457.22335877 C-375.1884062 453.10795761 -375.18905747 448.99255645 -375.18975449 444.8771553 C-375.18988933 444.06726866 -375.19002418 443.25738202 -375.19016311 442.42295336 C-375.19251692 429.44096251 -375.20176686 416.4589855 -375.21366407 403.47700027 C-375.22550561 390.39245533 -375.22991932 377.30792397 -375.22700275 364.22337388 C-375.22562532 357.14741143 -375.22739484 350.07148606 -375.23841095 342.99553108 C-375.33204184 280.33249485 -373.03605052 217.83183984 -346 160 C-345.67032227 159.2869873 -345.34064453 158.57397461 -345.00097656 157.83935547 C-335.9893449 138.52152779 -324.53620953 120.93340126 -310.0703125 105.2578125 C-308.21571134 103.23524746 -306.44964839 101.16516016 -304.6875 99.0625 C-290.81450793 83.25742456 -273.09605899 71.40962617 -255 61 C-253.97036133 60.40276123 -253.97036133 60.40276123 -252.91992188 59.79345703 C-193.60240468 25.75296653 -123.61904439 23.43787588 -57.14135742 23.79400635 C-50.67695125 23.82522989 -44.21250743 23.83850895 -37.74804688 23.85351562 C-25.16525298 23.88526094 -12.58268031 23.93782158 0 24 C0 16.08 0 8.16 0 0 Z M-161 210 C-161.90234375 210.81082031 -162.8046875 211.62164062 -163.734375 212.45703125 C-182.75191424 230.3976104 -190.7900575 254.78437081 -194.75 280.0625 C-194.86569336 280.79178711 -194.98138672 281.52107422 -195.10058594 282.27246094 C-197.43034571 298.67991806 -197.14302443 315.3896065 -197.12025452 331.9178772 C-197.12069138 334.29692292 -197.12156839 336.67596859 -197.12284368 339.05501401 C-197.12483407 344.86959908 -197.12222271 350.68416894 -197.11760301 356.49875221 C-197.11233073 363.47260973 -197.1129502 370.44646374 -197.11374746 377.42032278 C-197.11505662 390.28701901 -197.11173806 403.15371008 -197.10573006 416.02040482 C-197.09980155 428.74963024 -197.0959618 441.4788535 -197.09487724 454.20808029 C-197.0948085 455.00121968 -197.09473976 455.79435907 -197.09466894 456.61153299 C-197.09433058 460.63991747 -197.09402921 464.66830195 -197.09374207 468.69668643 C-197.09164481 497.18776637 -197.08491629 525.67884351 -197.07543945 554.16992188 C-197.06624674 581.83886704 -197.05916719 609.50781143 -197.05493164 637.17675781 C-197.05480011 638.03048438 -197.05466859 638.88421095 -197.05453308 639.76380801 C-197.05321449 648.33772301 -197.05193869 656.91163801 -197.05069422 665.48555302 C-197.04815839 682.94970913 -197.04533714 700.4138652 -197.04234314 717.87802124 C-197.04220585 718.68089517 -197.04206856 719.48376911 -197.04192711 720.31097255 C-197.03273523 773.8739829 -197.01681392 827.43699158 -197 881 C-183.47 881 -169.94 881 -156 881 C-156 906.41 -156 931.82 -156 958 C-169.53 958 -183.06 958 -197 958 C-197 998.18016234 -193.27851704 1039.71581152 -164 1070 C-143.8576978 1089.14164296 -115.60669414 1096.1626713 -88.50469971 1096.14044189 C-86.79439626 1096.14489858 -86.79439626 1096.14489858 -85.04954123 1096.1494453 C-81.2377726 1096.15810051 -77.42603549 1096.15963788 -73.61425781 1096.16113281 C-70.87708859 1096.16522827 -68.13992263 1096.17076825 -65.40275574 1096.17617798 C-57.97030707 1096.18972706 -50.53786382 1096.19578131 -43.10540485 1096.20018864 C-38.45580495 1096.20295814 -33.8062071 1096.20719688 -29.15660858 1096.21169281 C-16.25962073 1096.22388341 -3.36263451 1096.23418157 9.53435898 1096.2375679 C10.35894553 1096.23778747 11.18353208 1096.23800703 12.0331061 1096.23823325 C12.8595725 1096.23845153 13.6860389 1096.23866981 14.53754973 1096.2388947 C16.21204488 1096.23933815 17.88654002 1096.23978472 19.56103516 1096.24023438 C20.39162769 1096.2404558 21.22222022 1096.24067723 22.07798222 1096.24090537 C35.51112924 1096.24484626 48.94422178 1096.2622795 62.3773478 1096.2855939 C76.20001147 1096.30938868 90.02264792 1096.32177351 103.84533238 1096.32293582 C111.59354067 1096.32384829 119.34167804 1096.32949128 127.08986664 1096.34775543 C133.69320022 1096.36326689 140.29644099 1096.36821275 146.89978936 1096.36001733 C150.26032659 1096.35614874 153.62052787 1096.35853175 156.98106575 1096.37107468 C187.50196686 1096.47822441 219.44383657 1093.67006517 243 1072 C243.82886719 1071.26265625 244.65773438 1070.5253125 245.51171875 1069.765625 C268.30320981 1048.4051464 277.04109922 1014.68307622 278.09115994 984.36824954 C278.12441533 981.67837252 278.1286889 978.99019267 278.12025452 976.30012512 C278.12110894 975.28208902 278.12196337 974.26405291 278.12284368 973.21516722 C278.12447848 969.83589057 278.11901014 966.45666459 278.11352539 963.07739258 C278.11324306 960.64230348 278.11340215 958.20721429 278.1139679 955.77212524 C278.11419492 950.54593741 278.11137583 945.31976084 278.10573006 940.09357643 C278.09757275 932.53756651 278.09499552 924.98156261 278.09374207 917.42554875 C278.09155817 905.16382269 278.0849161 892.9021033 278.07543945 880.64038086 C278.06624816 868.73543328 278.05917574 856.83048752 278.05493164 844.92553711 C278.05466892 844.19063916 278.05440619 843.45574121 278.05413551 842.69857363 C278.05283039 839.01148502 278.0515667 835.32439639 278.05032361 831.63730776 C278.03997163 801.09153266 278.02154448 770.54576984 278 740 C257.54 740 237.08 740 216 740 C216 600.74 216 461.48 216 318 C236.46 318 256.92 318 278 318 C278.27715121 300.52184708 278.27715121 300.52184708 276.8125 283.3125 C276.6786792 282.37446533 276.5448584 281.43643066 276.40698242 280.4699707 C271.96465651 251.07637469 261.15323799 223.39369269 236.77734375 204.87109375 C216.13599653 190.96503845 192.21717313 185.83890047 167.58099365 185.85955811 C166.46106026 185.85658698 165.34112687 185.85361586 164.1872561 185.8505547 C160.45002504 185.84191203 156.71282618 185.84036319 152.97558594 185.83886719 C150.28915254 185.83423574 147.602722 185.82923062 144.91629028 185.82382202 C137.62639115 185.81028266 130.33649755 185.80422028 123.04658794 185.79981136 C118.48491743 185.79704033 113.923249 185.79280133 109.3615799 185.78830719 C96.7047476 185.77611809 84.04791698 185.76581948 71.39107895 185.7624321 C70.58211714 185.76221253 69.77315532 185.76199297 68.93967952 185.76176675 C68.12889142 185.76154847 67.31810332 185.76133019 66.48274589 185.7611053 C64.84005976 185.76066185 63.19737363 185.76021529 61.5546875 185.75976562 C60.73987586 185.7595442 59.92506421 185.75932277 59.08556131 185.75909463 C45.90858072 185.755154 32.73165569 185.73772087 19.55469653 185.7144061 C5.99076917 185.6906027 -7.57313044 185.67822611 -21.137079 185.67706418 C-28.73831063 185.67615222 -36.33946993 185.67052217 -43.94068146 185.65224457 C-50.41879823 185.63672138 -56.89682035 185.63179399 -63.37495223 185.63998267 C-66.67081394 185.64384717 -69.96633338 185.64148381 -73.26219559 185.62892532 C-104.12268779 185.51833062 -137.16777775 188.02227187 -161 210 Z "
              fill="#FEFEFE"
              transform="translate(1571,71)"
            />
            <path
              d="M0 0 C0 170.28 0 340.56 0 516 C9.57 516 19.14 516 29 516 C29 536.13 29 556.26 29 577 C19.43 577 9.86 577 0 577 C0 655.21 0 733.42 0 814 C39.93 814 79.86 814 121 814 C121 836.90236209 121 836.90236209 114.8125 848 C114.16434471 849.23726551 113.52090412 850.47701061 112.88183594 851.71899414 C111.57232751 854.25941118 110.24715418 856.79059029 108.91064453 859.31689453 C105.97262535 864.92116934 103.37338567 870.68111403 100.75 876.4375 C99.68027761 878.75738386 98.60859985 881.0763669 97.53515625 883.39453125 C97.11979614 884.29168854 97.11979614 884.29168854 96.69604492 885.20697021 C92.91011194 893.36995337 89.04517605 901.495753 85.1875 909.625 C83.65354082 912.85802311 82.11965962 916.09108318 80.5859375 919.32421875 C80.01568596 920.52629471 80.01568596 920.52629471 79.43391418 921.75265503 C75.37756352 930.30679652 71.34259788 938.8709651 67.3125 947.4375 C66.82938858 948.46402679 66.82938858 948.46402679 66.33651733 949.5112915 C61.87189484 958.99870422 57.43416996 968.49820722 53 978 C35.51 978 18.02 978 0 978 C0 1058.85 0 1139.7 0 1223 C-10.56043771 1228.28021885 -21.12662338 1233.53708942 -31.75 1238.6875 C-32.45588257 1239.03004822 -33.16176514 1239.37259644 -33.88903809 1239.7255249 C-44.76794832 1245.00082053 -55.6996809 1250.14589979 -66.68066406 1255.20581055 C-74.99867527 1259.04676061 -83.25905865 1262.99744598 -91.5 1267 C-102.19261989 1272.1928205 -112.92595901 1277.28481127 -123.74194336 1282.2175293 C-129.45805476 1284.83521042 -135.08909093 1287.53538632 -140.64453125 1290.48046875 C-141.72508789 1291.03976074 -142.80564453 1291.59905273 -143.91894531 1292.17529297 C-145.91832707 1293.21659881 -147.90305008 1294.28693797 -149.86621094 1295.39501953 C-159.98562594 1300.59974486 -164.9552894 1299 -178 1299 C-178 1193.07 -178 1087.14 -178 978 C-373.03 978 -568.06 978 -769 978 C-769 953.95672601 -769 953.95672601 -763.3125 943.9375 C-762.10151712 941.62117493 -760.89326313 939.30342149 -759.6875 936.984375 C-759.06875 935.82486328 -758.45 934.66535156 -757.8125 933.47070312 C-754.93996404 927.9701682 -752.38485524 922.33296882 -749.8125 916.6875 C-748.73248612 914.3467244 -747.65038443 912.00691118 -746.56640625 909.66796875 C-746.14603844 908.7608036 -746.14603844 908.7608036 -745.71717834 907.83531189 C-741.19264517 898.08734677 -736.56891876 888.38581598 -731.96118164 878.67700195 C-731.19286641 877.05810769 -730.42455588 875.4392112 -729.65625 873.8203125 C-729.27403793 873.01504623 -728.89182587 872.20977997 -728.49803162 871.38011169 C-725.75022059 865.58830953 -723.01310606 859.79153049 -720.28125 853.9921875 C-719.89821716 853.17941345 -719.51518433 852.3666394 -719.12054443 851.52923584 C-716.90316369 846.82399652 -716.90316369 846.82399652 -714.68859863 842.11743164 C-712.47291925 837.40494987 -710.24472027 832.69871811 -708 828 C-707.46648926 826.87972412 -706.93297852 825.75944824 -706.38330078 824.60522461 C-703.47448246 818.62505012 -700.32203894 813.16055395 -696.375 807.8125 C-695.31874895 806.34914703 -694.262767 804.88559978 -693.20703125 803.421875 C-692.67416504 802.68904297 -692.14129883 801.95621094 -691.59228516 801.20117188 C-689.04566718 797.68073218 -686.55797726 794.11926744 -684.0625 790.5625 C-679.94459438 784.71392923 -675.76740848 778.9112362 -671.5625 773.125 C-667.0590758 766.92462359 -662.67893295 760.65285332 -658.375 754.3125 C-654.06671551 747.9662878 -649.65663267 741.72068317 -645.09106445 735.55737305 C-640.11886382 728.83747764 -635.32004483 721.99792626 -630.51611328 715.15722656 C-628.01656693 711.60070618 -625.50794239 708.05060227 -623 704.5 C-620.00841805 700.26403277 -617.01821166 696.02713382 -614.03515625 691.78515625 C-608.92768011 684.52765027 -603.77964151 677.30413676 -598.5625 670.125 C-594.0590758 663.92462359 -589.67893295 657.65285332 -585.375 651.3125 C-581.06671551 644.9662878 -576.65663267 638.72068317 -572.09106445 632.55737305 C-567.11886382 625.83747764 -562.32004483 618.99792626 -557.51611328 612.15722656 C-555.01656693 608.60070618 -552.50794239 605.05060227 -550 601.5 C-547.00841805 597.26403277 -544.01821166 593.02713382 -541.03515625 588.78515625 C-535.92768011 581.52765027 -530.77964151 574.30413676 -525.5625 567.125 C-521.05907629 560.92462426 -516.67891669 554.65286363 -512.375 548.3125 C-508.11338264 542.03472212 -503.75074853 535.85904445 -499.22949219 529.76611328 C-494.89108909 523.90100399 -490.71546473 517.92622754 -486.56079102 511.92993164 C-486.02768311 511.16285889 -485.4945752 510.39578613 -484.9453125 509.60546875 C-484.39814418 508.79633467 -483.85097586 507.98720058 -483.28722668 507.15354729 C-481.53869848 504.74273842 -479.771444 502.55062169 -477.82607746 500.30983162 C-467.70955588 488.23195406 -466.13926227 478.82495679 -466.43237305 463.39404297 C-466.42616234 461.18449683 -466.41422605 458.97496063 -466.39706421 456.76547241 C-466.36686134 450.82342812 -466.41578218 444.88446605 -466.47994971 438.94279242 C-466.53343291 432.71282155 -466.51272127 426.48308502 -466.50019836 420.25296021 C-466.48835751 409.14810605 -466.53185174 398.04441209 -466.60525588 386.93981732 C-466.6712576 376.8646061 -466.7067818 366.78978194 -466.71313477 356.71435547 C-466.71356318 356.04999748 -466.71399159 355.3856395 -466.71443298 354.70114945 C-466.7164141 351.36758896 -466.71782892 348.03402871 -466.71903551 344.70046782 C-466.73066114 317.13294445 -466.84433049 289.56711226 -467 262 C-439.28 262 -411.56 262 -383 262 C-382.67 295.66 -382.34 329.32 -382 364 C-373.44451595 352.37176078 -373.44451595 352.37176078 -365.0625 340.625 C-364.05342476 339.1900765 -363.04430898 337.7551815 -362.03515625 336.3203125 C-361.53387207 335.60649414 -361.03258789 334.89267578 -360.51611328 334.15722656 C-358.01656693 330.60070618 -355.50794239 327.05060227 -353 323.5 C-350.00841805 319.26403277 -347.01821166 315.02713382 -344.03515625 310.78515625 C-338.94477639 303.55159079 -333.81789023 296.34789253 -328.625 289.1875 C-322.20423727 280.33027853 -315.93570932 271.37019403 -309.67578125 262.39892578 C-303.05128787 252.91578593 -296.36181499 243.48357919 -289.5625 234.125 C-285.05915433 227.92456579 -280.67891858 221.65286641 -276.375 215.3125 C-272.11338264 209.03472212 -267.75074853 202.85904445 -263.22949219 196.76611328 C-259.43536143 191.63680855 -255.77089881 186.42295677 -252.125 181.1875 C-247.64056422 174.7487956 -243.11102414 168.34868475 -238.5 162 C-232.11757698 153.2075196 -225.89283634 144.30875163 -219.67578125 135.39892578 C-212.52517509 125.16264138 -205.28430447 114.99733343 -197.94311523 104.89697266 C-193.29770245 98.47580326 -188.8180085 91.94754647 -184.40063477 85.36767578 C-183.89717529 84.62243652 -183.39371582 83.87719727 -182.875 83.109375 C-182.43929687 82.45936523 -182.00359375 81.80935547 -181.5546875 81.13964844 C-177.15606286 75.08601364 -173.90066893 71.94880397 -167.09765625 68.890625 C-165.93222038 68.34452827 -165.93222038 68.34452827 -164.74324036 67.78739929 C-162.18920532 66.59436238 -159.62606222 65.42240593 -157.0625 64.25 C-155.25790821 63.41112964 -153.45404487 62.57069059 -151.65087891 61.72875977 C-147.92963577 59.9930316 -144.20515257 58.26456351 -140.47802734 56.54150391 C-133.03036202 53.0933865 -125.61889655 49.56968991 -118.20700073 46.04553223 C-114.28318972 44.18116358 -110.35631421 42.32327278 -106.4296875 40.46484375 C-104.85903564 39.72122064 -103.28839761 38.97756831 -101.71777344 38.23388672 C-100.93994507 37.86559753 -100.1621167 37.49730835 -99.36071777 37.11785889 C-96.99334067 35.99684664 -94.62604393 34.87566489 -92.25878906 33.75439453 C-91.4752153 33.38328049 -90.69164154 33.01216644 -89.88432312 32.62980652 C-88.29905215 31.87876548 -86.71393874 31.12739176 -85.12898254 30.37568665 C-81.18522926 28.50574757 -77.23899065 26.64149248 -73.28686523 24.78930664 C-65.95248543 21.34488186 -58.65535133 17.85410402 -51.44125366 14.1630249 C-48.09063877 12.45290038 -44.72487645 10.77384191 -41.35766602 9.09667969 C-39.78021823 8.30039716 -38.21003623 7.4895024 -36.64868164 6.66210938 C-35.91447998 6.27345703 -35.18027832 5.88480469 -34.42382812 5.484375 C-33.79150269 5.1435791 -33.15917725 4.8027832 -32.50769043 4.45166016 C-19.79122865 -1.42874119 -16.20376082 0 0 0 Z M-179 330 C-179.81353313 331.08093058 -180.57916226 332.1979197 -181.32568359 333.32617188 C-182.05312271 334.41992126 -182.05312271 334.41992126 -182.79525757 335.5357666 C-183.32430695 336.33865112 -183.85335632 337.14153564 -184.3984375 337.96875 C-184.94803131 338.79644897 -185.49762512 339.62414795 -186.06387329 340.47692871 C-187.83751078 343.14913949 -189.60649204 345.82439223 -191.375 348.5 C-193.67264026 351.96997143 -195.97228278 355.4386083 -198.2734375 358.90625 C-198.84618912 359.76951401 -199.41894073 360.63277802 -200.00904846 361.52220154 C-203.89209352 367.36343093 -207.83312658 373.1608816 -211.82008362 378.93153381 C-217.88804927 387.71899139 -223.84439998 396.58206489 -229.8125 405.4375 C-230.44117981 406.3697641 -231.06985962 407.3020282 -231.71759033 408.26254272 C-240.14086511 420.75438554 -248.53027006 433.26806544 -256.875 445.8125 C-263.11904127 455.19892472 -269.39567302 464.55914371 -275.76489258 473.86132812 C-282.57372687 483.81598748 -289.31810698 493.81411295 -296.0625 503.8125 C-296.69143158 504.74482452 -297.32036316 505.67714905 -297.96835327 506.63772583 C-306.30827809 519.00435554 -314.61354289 531.3933269 -322.875 543.8125 C-329.11904875 553.19891971 -335.39567297 562.55914363 -341.76489258 571.86132812 C-348.57372678 581.81598734 -355.31812283 591.81410242 -362.0625 601.8125 C-362.69209625 602.74582153 -363.3216925 603.67914307 -363.97036743 604.64074707 C-372.26753302 616.94415026 -380.53091565 629.2693128 -388.75 641.625 C-395.46287517 651.71634332 -402.21958271 661.77459404 -409.04907227 671.78759766 C-416.12698013 682.17028515 -423.16027519 692.58295593 -430.1875 703 C-430.81288666 703.92700714 -431.43827332 704.85401428 -432.08261108 705.80911255 C-440.84579575 718.80235192 -449.56644373 731.82305145 -458.24520874 744.87280273 C-463.61638973 752.94807378 -469.01754324 760.9996012 -474.5 769 C-480.53029135 777.80203692 -486.48352094 786.65456645 -492.41015625 795.52661133 C-493.42515092 797.04569623 -494.44093389 798.56425472 -495.45751953 800.08227539 C-496.87900566 802.20561738 -498.29738712 804.3309979 -499.71484375 806.45703125 C-500.14840683 807.10380325 -500.58196991 807.75057526 -501.02867126 808.41694641 C-503.08974007 811.00327333 -503.08974007 811.00327333 -504 814 C-396.42 814 -288.84 814 -178 814 C-178 654.28 -178 494.56 -178 330 C-178.33 330 -178.66 330 -179 330 Z "
              fill="#FEFEFE"
              transform="translate(3103,63)"
            />
            <path
              d="M0 0 C0 170.28 0 340.56 0 516 C9.57 516 19.14 516 29 516 C29 536.13 29 556.26 29 577 C19.43 577 9.86 577 0 577 C0 655.21 0 733.42 0 814 C39.93 814 79.86 814 121 814 C121 836.90236209 121 836.90236209 114.8125 848 C114.16434471 849.23726551 113.52090412 850.47701061 112.88183594 851.71899414 C111.57232751 854.25941118 110.24715418 856.79059029 108.91064453 859.31689453 C105.97262535 864.92116934 103.37338567 870.68111403 100.75 876.4375 C99.68027761 878.75738386 98.60859985 881.0763669 97.53515625 883.39453125 C97.11979614 884.29168854 97.11979614 884.29168854 96.69604492 885.20697021 C92.91011194 893.36995337 89.04517605 901.495753 85.1875 909.625 C83.65354082 912.85802311 82.11965962 916.09108318 80.5859375 919.32421875 C80.01568596 920.52629471 80.01568596 920.52629471 79.43391418 921.75265503 C75.37756352 930.30679652 71.34259788 938.8709651 67.3125 947.4375 C66.82938858 948.46402679 66.82938858 948.46402679 66.33651733 949.5112915 C61.87189484 958.99870422 57.43416996 968.49820722 53 978 C35.51 978 18.02 978 0 978 C0 1058.85 0 1139.7 0 1223 C-10.56043771 1228.28021885 -21.12662338 1233.53708942 -31.75 1238.6875 C-32.45588257 1239.03004822 -33.16176514 1239.37259644 -33.88903809 1239.7255249 C-44.76794832 1245.00082053 -55.6996809 1250.14589979 -66.68066406 1255.20581055 C-74.99867527 1259.04676061 -83.25905865 1262.99744598 -91.5 1267 C-102.19261989 1272.1928205 -112.92595901 1277.28481127 -123.74194336 1282.2175293 C-129.45805476 1284.83521042 -135.08909093 1287.53538632 -140.64453125 1290.48046875 C-141.72508789 1291.03976074 -142.80564453 1291.59905273 -143.91894531 1292.17529297 C-145.91832707 1293.21659881 -147.90305008 1294.28693797 -149.86621094 1295.39501953 C-159.98562594 1300.59974486 -164.9552894 1299 -178 1299 C-178 1193.07 -178 1087.14 -178 978 C-373.03 978 -568.06 978 -769 978 C-769 953.95672601 -769 953.95672601 -763.3125 943.9375 C-762.10151712 941.62117493 -760.89326313 939.30342149 -759.6875 936.984375 C-759.06875 935.82486328 -758.45 934.66535156 -757.8125 933.47070312 C-754.93996404 927.9701682 -752.38485524 922.33296882 -749.8125 916.6875 C-748.73248612 914.3467244 -747.65038443 912.00691118 -746.56640625 909.66796875 C-746.14603844 908.7608036 -746.14603844 908.7608036 -745.71717834 907.83531189 C-741.19264517 898.08734677 -736.56891876 888.38581598 -731.96118164 878.67700195 C-731.19286641 877.05810769 -730.42455588 875.4392112 -729.65625 873.8203125 C-729.27403793 873.01504623 -728.89182587 872.20977997 -728.49803162 871.38011169 C-725.75022059 865.58830953 -723.01310606 859.79153049 -720.28125 853.9921875 C-719.89821716 853.17941345 -719.51518433 852.3666394 -719.12054443 851.52923584 C-716.90316369 846.82399652 -716.90316369 846.82399652 -714.68859863 842.11743164 C-712.47291925 837.40494987 -710.24472027 832.69871811 -708 828 C-707.46648926 826.87972412 -706.93297852 825.75944824 -706.38330078 824.60522461 C-703.47448246 818.62505012 -700.32203894 813.16055395 -696.375 807.8125 C-695.31874895 806.34914703 -694.262767 804.88559978 -693.20703125 803.421875 C-692.67416504 802.68904297 -692.14129883 801.95621094 -691.59228516 801.20117188 C-689.04566718 797.68073218 -686.55797726 794.11926744 -684.0625 790.5625 C-679.94459438 784.71392923 -675.76740848 778.9112362 -671.5625 773.125 C-667.0590758 766.92462359 -662.67893295 760.65285332 -658.375 754.3125 C-654.06671551 747.9662878 -649.65663267 741.72068317 -645.09106445 735.55737305 C-640.11886382 728.83747764 -635.32004483 721.99792626 -630.51611328 715.15722656 C-628.01656693 711.60070618 -625.50794239 708.05060227 -623 704.5 C-620.00841805 700.26403277 -617.01821166 696.02713382 -614.03515625 691.78515625 C-608.92768011 684.52765027 -603.77964151 677.30413676 -598.5625 670.125 C-594.0590758 663.92462359 -589.67893295 657.65285332 -585.375 651.3125 C-581.06671551 644.9662878 -576.65663267 638.72068317 -572.09106445 632.55737305 C-567.11886382 625.83747764 -562.32004483 618.99792626 -557.51611328 612.15722656 C-555.01656693 608.60070618 -552.50794239 605.05060227 -550 601.5 C-547.00841805 597.26403277 -544.01821166 593.02713382 -541.03515625 588.78515625 C-535.92768011 581.52765027 -530.77964151 574.30413676 -525.5625 567.125 C-521.05907629 560.92462426 -516.67891669 554.65286363 -512.375 548.3125 C-508.11338264 542.03472212 -503.75074853 535.85904445 -499.22949219 529.76611328 C-494.89108909 523.90100399 -490.71546473 517.92622754 -486.56079102 511.92993164 C-486.02768311 511.16285889 -485.4945752 510.39578613 -484.9453125 509.60546875 C-484.39814418 508.79633467 -483.85097586 507.98720058 -483.28722668 507.15354729 C-481.53869848 504.74273842 -479.771444 502.55062169 -477.82607746 500.30983162 C-467.70955588 488.23195406 -466.13926227 478.82495679 -466.43237305 463.39404297 C-466.42616234 461.18449683 -466.41422605 458.97496063 -466.39706421 456.76547241 C-466.36686134 450.82342812 -466.41578218 444.88446605 -466.47994971 438.94279242 C-466.53343291 432.71282155 -466.51272127 426.48308502 -466.50019836 420.25296021 C-466.48835751 409.14810605 -466.53185174 398.04441209 -466.60525588 386.93981732 C-466.6712576 376.8646061 -466.7067818 366.78978194 -466.71313477 356.71435547 C-466.71356318 356.04999748 -466.71399159 355.3856395 -466.71443298 354.70114945 C-466.7164141 351.36758896 -466.71782892 348.03402871 -466.71903551 344.70046782 C-466.73066114 317.13294445 -466.84433049 289.56711226 -467 262 C-439.28 262 -411.56 262 -383 262 C-382.67 295.66 -382.34 329.32 -382 364 C-373.44451595 352.37176078 -373.44451595 352.37176078 -365.0625 340.625 C-364.05342476 339.1900765 -363.04430898 337.7551815 -362.03515625 336.3203125 C-361.53387207 335.60649414 -361.03258789 334.89267578 -360.51611328 334.15722656 C-358.01656693 330.60070618 -355.50794239 327.05060227 -353 323.5 C-350.00841805 319.26403277 -347.01821166 315.02713382 -344.03515625 310.78515625 C-338.94477639 303.55159079 -333.81789023 296.34789253 -328.625 289.1875 C-322.20423727 280.33027853 -315.93570932 271.37019403 -309.67578125 262.39892578 C-303.05128787 252.91578593 -296.36181499 243.48357919 -289.5625 234.125 C-285.05915433 227.92456579 -280.67891858 221.65286641 -276.375 215.3125 C-272.11338264 209.03472212 -267.75074853 202.85904445 -263.22949219 196.76611328 C-259.43536143 191.63680855 -255.77089881 186.42295677 -252.125 181.1875 C-247.64056422 174.7487956 -243.11102414 168.34868475 -238.5 162 C-232.11757698 153.2075196 -225.89283634 144.30875163 -219.67578125 135.39892578 C-212.52517509 125.16264138 -205.28430447 114.99733343 -197.94311523 104.89697266 C-193.29770245 98.47580326 -188.8180085 91.94754647 -184.40063477 85.36767578 C-183.89717529 84.62243652 -183.39371582 83.87719727 -182.875 83.109375 C-182.43929687 82.45936523 -182.00359375 81.80935547 -181.5546875 81.13964844 C-177.15606286 75.08601364 -173.90066893 71.94880397 -167.09765625 68.890625 C-165.93222038 68.34452827 -165.93222038 68.34452827 -164.74324036 67.78739929 C-162.18920532 66.59436238 -159.62606222 65.42240593 -157.0625 64.25 C-155.25790821 63.41112964 -153.45404487 62.57069059 -151.65087891 61.72875977 C-147.92963577 59.9930316 -144.20515257 58.26456351 -140.47802734 56.54150391 C-133.03036202 53.0933865 -125.61889655 49.56968991 -118.20700073 46.04553223 C-114.28318972 44.18116358 -110.35631421 42.32327278 -106.4296875 40.46484375 C-104.85903564 39.72122064 -103.28839761 38.97756831 -101.71777344 38.23388672 C-100.93994507 37.86559753 -100.1621167 37.49730835 -99.36071777 37.11785889 C-96.99334067 35.99684664 -94.62604393 34.87566489 -92.25878906 33.75439453 C-91.4752153 33.38328049 -90.69164154 33.01216644 -89.88432312 32.62980652 C-88.29905215 31.87876548 -86.71393874 31.12739176 -85.12898254 30.37568665 C-81.18522926 28.50574757 -77.23899065 26.64149248 -73.28686523 24.78930664 C-65.95248543 21.34488186 -58.65535133 17.85410402 -51.44125366 14.1630249 C-48.09063877 12.45290038 -44.72487645 10.77384191 -41.35766602 9.09667969 C-39.78021823 8.30039716 -38.21003623 7.4895024 -36.64868164 6.66210938 C-35.91447998 6.27345703 -35.18027832 5.88480469 -34.42382812 5.484375 C-33.79150269 5.1435791 -33.15917725 4.8027832 -32.50769043 4.45166016 C-19.79122865 -1.42874119 -16.20376082 0 0 0 Z M-179 330 C-179.81353313 331.08093058 -180.57916226 332.1979197 -181.32568359 333.32617188 C-182.05312271 334.41992126 -182.05312271 334.41992126 -182.79525757 335.5357666 C-183.32430695 336.33865112 -183.85335632 337.14153564 -184.3984375 337.96875 C-184.94803131 338.79644897 -185.49762512 339.62414795 -186.06387329 340.47692871 C-187.83751078 343.14913949 -189.60649204 345.82439223 -191.375 348.5 C-193.67264026 351.96997143 -195.97228278 355.4386083 -198.2734375 358.90625 C-198.84618912 359.76951401 -199.41894073 360.63277802 -200.00904846 361.52220154 C-203.89209352 367.36343093 -207.83312658 373.1608816 -211.82008362 378.93153381 C-217.88804927 387.71899139 -223.84439998 396.58206489 -229.8125 405.4375 C-230.44117981 406.3697641 -231.06985962 407.3020282 -231.71759033 408.26254272 C-240.14086511 420.75438554 -248.53027006 433.26806544 -256.875 445.8125 C-263.11904127 455.19892472 -269.39567302 464.55914371 -275.76489258 473.86132812 C-282.57372687 483.81598748 -289.31810698 493.81411295 -296.0625 503.8125 C-296.69143158 504.74482452 -297.32036316 505.67714905 -297.96835327 506.63772583 C-306.30827809 519.00435554 -314.61354289 531.3933269 -322.875 543.8125 C-329.11904875 553.19891971 -335.39567297 562.55914363 -341.76489258 571.86132812 C-348.57372678 581.81598734 -355.31812283 591.81410242 -362.0625 601.8125 C-362.69209625 602.74582153 -363.3216925 603.67914307 -363.97036743 604.64074707 C-372.26753302 616.94415026 -380.53091565 629.2693128 -388.75 641.625 C-395.46287517 651.71634332 -402.21958271 661.77459404 -409.04907227 671.78759766 C-416.12698013 682.17028515 -423.16027519 692.58295593 -430.1875 703 C-430.81288666 703.92700714 -431.43827332 704.85401428 -432.08261108 705.80911255 C-440.84579575 718.80235192 -449.56644373 731.82305145 -458.24520874 744.87280273 C-463.61638973 752.94807378 -469.01754324 760.9996012 -474.5 769 C-480.53029135 777.80203692 -486.48352094 786.65456645 -492.41015625 795.52661133 C-493.42515092 797.04569623 -494.44093389 798.56425472 -495.45751953 800.08227539 C-496.87900566 802.20561738 -498.29738712 804.3309979 -499.71484375 806.45703125 C-500.14840683 807.10380325 -500.58196991 807.75057526 -501.02867126 808.41694641 C-503.08974007 811.00327333 -503.08974007 811.00327333 -504 814 C-396.42 814 -288.84 814 -178 814 C-178 654.28 -178 494.56 -178 330 C-178.33 330 -178.66 330 -179 330 Z "
              fill="#FEFEFE"
              transform="translate(831,63)"
            />
            <path
              d="M0 0 C33.66831679 0 67.34274558 0.13699348 101 1 C101 139.93 101 278.86 101 422 C67.67 422 34.34 422 0 422 C0 282.74 0 143.48 0 0 Z "
              fill="#0084d1"
              transform="translate(1787,389)"
            />
            <path
              d="M0 0 C27.72 0 55.44 0 84 0 C84 112.53 84 225.06 84 341 C56.61 341 29.22 341 1 341 C0.8171782 325.97923025 0.64721367 310.95862541 0.5 295.9375 C0.48812275 294.72687645 0.4762455 293.5162529 0.46400833 292.26894379 C-0.14060315 229.55564495 -0.08385818 166.84058926 -0.0625 104.125 C-0.06207577 102.84292081 -0.06165154 101.56084163 -0.06121445 100.23991156 C-0.04997382 66.82659937 -0.02851039 33.4133018 0 0 Z "
              fill="#0084d1"
              transform="translate(2636,325)"
            />
            <path
              d="M0 0 C27.72 0 55.44 0 84 0 C84 112.53 84 225.06 84 341 C56.61 341 29.22 341 1 341 C0.8171782 325.97923025 0.64721367 310.95862541 0.5 295.9375 C0.48812275 294.72687645 0.4762455 293.5162529 0.46400833 292.26894379 C-0.14060315 229.55564495 -0.08385818 166.84058926 -0.0625 104.125 C-0.06207577 102.84292081 -0.06165154 101.56084163 -0.06121445 100.23991156 C-0.04997382 66.82659937 -0.02851039 33.4133018 0 0 Z "
              fill="#0084d1"
              transform="translate(364,325)"
            />
            <path
              d="M0 0 C83.82 0 167.64 0 254 0 C254 25.41 254 50.82 254 77 C170.18 77 86.36 77 0 77 C0 51.59 0 26.18 0 0 Z "
              fill="#0084d1"
              transform="translate(1161,952)"
            />
            <path
              d="M0 0 C2.97 0 5.94 0 9 0 C9 51.81 9 103.62 9 157 C48.93 157 88.86 157 130 157 C130.268125 171.7675 130.53625 186.535 130.8125 201.75 C130.93085205 206.3503418 131.0492041 210.95068359 131.17114258 215.69042969 C131.51085526 238.30674126 130.55609001 255.55648408 118.63980103 275.23242188 C116.22965567 279.3001505 114.30410301 283.54949439 112.35546875 287.8515625 C111.66389344 289.31696737 110.96912087 290.78086805 110.27099609 292.24316406 C108.02800023 296.96020313 105.78897289 301.67911716 103.55078125 306.3984375 C103.16825195 307.20482666 102.78572266 308.01121582 102.39160156 308.84204102 C98.53695302 316.97060702 94.7031715 325.10893752 90.875 333.25 C90.54881683 333.94361633 90.22263367 334.63723267 89.88656616 335.35186768 C88.24667299 338.83925724 86.60713322 342.3268128 84.96777344 345.81445312 C82.9822242 350.0382803 80.99522432 354.26142395 79.0078125 358.484375 C78.67709244 359.18711044 78.34637238 359.88984589 78.00563049 360.61387634 C76.67197838 363.44762065 75.33826593 366.28133656 74.00448608 369.11502075 C70.62509454 376.2947363 67.24628861 383.47472245 63.87191772 390.65679932 C55.97391258 407.46689038 48.03720428 424.25582441 40 441 C29.77 441 19.54 441 9 441 C9 514.92 9 588.84 9 665 C-0.24 669.29 -9.48 673.58 -19 678 C-23.84227592 680.31830971 -28.67735813 682.64246317 -33.5 685 C-44.10674019 690.15332916 -54.7722251 695.16597589 -65.48046875 700.10546875 C-73.86379697 703.9826407 -82.19195836 707.96504701 -90.5 712 C-101.10743953 717.1516978 -111.77225902 722.16599154 -122.48046875 727.10546875 C-130.86379404 730.98263935 -139.19201507 734.96493246 -147.5 739 C-160.81471612 745.46559351 -174.21815015 751.72512078 -187.6628418 757.9152832 C-189.11782903 758.59056872 -190.56528794 759.28264397 -192 760 C-224.01 760 -256.02 760 -289 760 C-289 654.73 -289 549.46 -289 441 C-340.81 441 -392.62 441 -446 441 C-446 438.03 -446 435.06 -446 432 C-391.55 432 -337.1 432 -281 432 C-281 537.93 -281 643.86 -281 753 C-206.3205351 757.86835102 -206.3205351 757.86835102 -172 739 C-167.38040666 736.83937284 -162.76071435 734.68707755 -158.125 732.5625 C-148.53484211 728.13919571 -138.99963213 723.61347905 -129.5 719 C-118.84543092 713.82562792 -108.13390037 708.78713782 -97.37890625 703.82421875 C-89.38122881 700.12607834 -81.43015187 696.34062717 -73.5 692.5 C-63.27470282 687.54781815 -52.99524842 682.7269869 -42.67602539 677.97387695 C-36.38443652 675.0664304 -30.12402676 672.108102 -23.89453125 669.0703125 C-23.22605164 668.74479904 -22.55757202 668.41928558 -21.86883545 668.08390808 C-18.62534688 666.5031334 -15.38564156 664.91520344 -12.15087891 663.31665039 C-10.9963623 662.75196045 -9.8418457 662.18727051 -8.65234375 661.60546875 C-7.63132568 661.10168701 -6.61030762 660.59790527 -5.55834961 660.07885742 C-3 659 -3 659 0 659 C0 584.09 0 509.18 0 432 C11.22 432 22.44 432 34 432 C34.66 430.02 35.32 428.04 36 426 C36.89976879 424.00264449 37.83573954 422.02133628 38.80078125 420.0546875 C39.35862305 418.9107251 39.91646484 417.7667627 40.49121094 416.58813477 C40.93539368 415.68286545 40.93539368 415.68286545 41.3885498 414.75930786 C42.98846284 411.49643857 44.57461994 408.22690547 46.16015625 404.95703125 C46.64764847 403.95200813 46.64764847 403.95200813 47.14498901 402.92668152 C50.25253313 396.50538504 53.26202766 390.04024156 56.25 383.5625 C61.37222716 372.46856742 66.57380201 361.41437169 71.8125 350.375 C73.35948124 347.11463373 74.90639151 343.85423382 76.453125 340.59375 C77.02647331 339.38517082 77.02647331 339.38517082 77.61140442 338.1521759 C81.44506912 330.06760009 85.25619639 321.97248591 89.0625 313.875 C93.2231044 305.02385184 97.38735476 296.17448847 101.56640625 287.33203125 C101.94827591 286.5239502 102.33014557 285.71586914 102.72358704 284.88330078 C104.56236556 280.99260509 106.4018856 277.10226218 108.24243164 273.21240234 C108.91424251 271.7913493 109.58603692 270.37028848 110.2578125 268.94921875 C110.69287865 268.03073906 110.69287865 268.03073906 111.13673401 267.09370422 C111.73984137 265.81736611 112.33261041 264.53610856 112.91677856 263.25099182 C113.72830879 261.56458881 114.61614011 259.91454802 115.54000854 258.28697205 C120.78342523 248.45034493 120.86821072 239.73123794 120.8046875 228.79296875 C120.81577074 227.1779173 120.82952172 225.56288193 120.84594727 223.94787598 C120.88779256 218.02789062 120.87843747 212.10763225 120.875 206.1875 C120.91625 192.925625 120.9575 179.66375 121 166 C81.07 166 41.14 166 0 166 C0 111.22 0 56.44 0 0 Z "
              fill="#0084d1"
              transform="translate(882,660)"
            />
            <path
              d="M0 0 C2.97 0 5.94 0 9 0 C9 51.81 9 103.62 9 157 C48.27 157 87.54 157 128 157 C128.28875 172.571875 128.5775 188.14375 128.875 204.1875 C129.00245605 209.03977295 129.12991211 213.8920459 129.26123047 218.89135742 C129.62042591 242.51057543 128.70551705 260.77058905 115.80158997 281.01832581 C112.63611448 286.25726294 110.23510146 291.85256265 107.75 297.4375 C107.16032772 298.71974831 106.5685937 300.00105534 105.97290039 301.28051758 C105.49844482 302.30814209 105.02398926 303.3357666 104.53515625 304.39453125 C100.47605157 313.16481976 96.33063165 321.89418105 92.1875 330.625 C90.64182258 333.88276293 89.09622538 337.14056389 87.55078125 340.3984375 C87.16875549 341.20374405 86.78672974 342.0090506 86.39312744 342.83876038 C82.53804354 350.96845563 78.70383571 359.10791639 74.875 367.25 C74.55047852 367.93996063 74.22595703 368.62992126 73.89160156 369.34078979 C70.90234667 375.69639558 67.91476864 382.05278884 64.92822266 388.40966797 C62.8486557 392.83592892 60.76845475 397.26189133 58.6875 401.6875 C58.35457947 402.39553772 58.02165894 403.10357544 57.6786499 403.83306885 C51.83936582 416.2480362 45.93695799 428.63133751 40 441 C29.77 441 19.54 441 9 441 C9 514.92 9 588.84 9 665 C-0.24 669.29 -9.48 673.58 -19 678 C-23.84227592 680.31830971 -28.67735813 682.64246317 -33.5 685 C-44.10674019 690.15332916 -54.7722251 695.16597589 -65.48046875 700.10546875 C-73.86379697 703.9826407 -82.19195836 707.96504701 -90.5 712 C-101.10743953 717.1516978 -111.77225902 722.16599154 -122.48046875 727.10546875 C-130.86379404 730.98263935 -139.19201507 734.96493246 -147.5 739 C-160.81471612 745.46559351 -174.21815015 751.72512078 -187.6628418 757.9152832 C-189.11782903 758.59056872 -190.56528794 759.28264397 -192 760 C-224.01 760 -256.02 760 -289 760 C-289 654.73 -289 549.46 -289 441 C-340.81 441 -392.62 441 -446 441 C-446 438.03 -446 435.06 -446 432 C-391.55 432 -337.1 432 -281 432 C-281 537.93 -281 643.86 -281 753 C-206.3205351 757.86835102 -206.3205351 757.86835102 -172 739 C-167.38040666 736.83937284 -162.76071435 734.68707755 -158.125 732.5625 C-148.53484211 728.13919571 -138.99963213 723.61347905 -129.5 719 C-118.84543092 713.82562792 -108.13390037 708.78713782 -97.37890625 703.82421875 C-89.38122881 700.12607834 -81.43015187 696.34062717 -73.5 692.5 C-63.27470282 687.54781815 -52.99524842 682.7269869 -42.67602539 677.97387695 C-36.38443652 675.0664304 -30.12402676 672.108102 -23.89453125 669.0703125 C-23.22605164 668.74479904 -22.55757202 668.41928558 -21.86883545 668.08390808 C-18.62534688 666.5031334 -15.38564156 664.91520344 -12.15087891 663.31665039 C-10.9963623 662.75196045 -9.8418457 662.18727051 -8.65234375 661.60546875 C-7.63132568 661.10168701 -6.61030762 660.59790527 -5.55834961 660.07885742 C-3 659 -3 659 0 659 C0 584.09 0 509.18 0 432 C11.22 432 22.44 432 34 432 C34.66 430.02 35.32 428.04 36 426 C36.89976879 424.00264449 37.83573954 422.02133628 38.80078125 420.0546875 C39.35862305 418.9107251 39.91646484 417.7667627 40.49121094 416.58813477 C40.93539368 415.68286545 40.93539368 415.68286545 41.3885498 414.75930786 C42.98846284 411.49643857 44.57461994 408.22690547 46.16015625 404.95703125 C46.64764847 403.95200813 46.64764847 403.95200813 47.14498901 402.92668152 C50.25253313 396.50538504 53.26202766 390.04024156 56.25 383.5625 C61.37222716 372.46856742 66.57380201 361.41437169 71.8125 350.375 C73.35948124 347.11463373 74.90639151 343.85423382 76.453125 340.59375 C77.02647331 339.38517082 77.02647331 339.38517082 77.61140442 338.1521759 C81.44506912 330.06760009 85.25619639 321.97248591 89.0625 313.875 C93.2231044 305.02385184 97.38735476 296.17448847 101.56640625 287.33203125 C101.94827591 286.5239502 102.33014557 285.71586914 102.72358704 284.88330078 C104.56236556 280.99260509 106.4018856 277.10226218 108.24243164 273.21240234 C108.91424251 271.7913493 109.58603692 270.37028848 110.2578125 268.94921875 C110.69287865 268.03073906 110.69287865 268.03073906 111.13673401 267.09370422 C111.73984137 265.81736611 112.33261041 264.53610856 112.91677856 263.25099182 C113.72830879 261.56458881 114.61614011 259.91454802 115.54000854 258.28697205 C120.78342523 248.45034493 120.86821072 239.73123794 120.8046875 228.79296875 C120.81577074 227.1779173 120.82952172 225.56288193 120.84594727 223.94787598 C120.88779256 218.02789062 120.87843747 212.10763225 120.875 206.1875 C120.91625 192.925625 120.9575 179.66375 121 166 C81.07 166 41.14 166 0 166 C0 111.22 0 56.44 0 0 Z "
              fill="#0084d1"
              transform="translate(3154,660)"
            />
            <path
              d="M0 0 C32.01 0 64.02 0 97 0 C97 38.94 97 77.88 97 118 C65.32 118 33.64 118 1 118 C0.835 102.985 0.67 87.97 0.5 72.5 C0.44779297 67.81103516 0.39558594 63.12207031 0.34179688 58.29101562 C0.27832031 52.43261719 0.27832031 52.43261719 0.24865723 49.66442871 C0.22830164 47.78714482 0.2074491 45.90986627 0.18615723 44.03259277 C0.17532104 43.07405396 0.16448486 42.11551514 0.15332031 41.12792969 C0.14371277 40.29013977 0.13410522 39.45234985 0.12420654 38.58917236 C-0.00466999 25.72263443 0 12.87022072 0 0 Z "
              fill="#0084d1"
              transform="translate(1571,71)"
            />
            <path
              d="M0 0 C55.11 0 110.22 0 167 0 C167 20.13 167 40.26 167 61 C111.89 61 56.78 61 0 61 C0 40.87 0 20.74 0 0 Z "
              fill="#0084d1"
              transform="translate(2965,579)"
            />
            <path
              d="M0 0 C55.11 0 110.22 0 167 0 C167 20.13 167 40.26 167 61 C111.89 61 56.78 61 0 61 C0 40.87 0 20.74 0 0 Z "
              fill="#0084d1"
              transform="translate(693,579)"
            />
            <path
              d="M0 0 C0.33 0 0.66 0 1 0 C1 87.45 1 174.9 1 265 C-57.74 265 -116.48 265 -177 265 C-175.49562878 261.23907195 -174.33091369 258.77133778 -172.10546875 255.5546875 C-171.49485596 254.66523437 -170.88424316 253.77578125 -170.25512695 252.859375 C-169.57281006 251.87453125 -168.89049316 250.8896875 -168.1875 249.875 C-166.64220713 247.62308793 -165.09796327 245.37048024 -163.5546875 243.1171875 C-163.12901993 242.4966449 -162.70335236 241.87610229 -162.26478577 241.23675537 C-156.06487217 232.19118747 -149.94275658 223.09284041 -143.8125 214 C-143.18826141 213.07453369 -142.56402283 212.14906738 -141.92086792 211.19555664 C-133.65978381 198.94682612 -125.43282388 186.67613736 -117.25 174.375 C-110.53712075 164.28365941 -103.78041732 154.225406 -96.95092773 144.21240234 C-89.87301994 133.82971495 -82.83970816 123.4170552 -75.8125 113 C-75.18644867 112.07199585 -74.56039734 111.1439917 -73.91537476 110.18786621 C-65.19823762 97.26271252 -56.52270084 84.31072496 -47.88955688 71.3293457 C-41.48818687 61.70514689 -35.02851371 52.12375482 -28.50488281 42.58178711 C-24.3250909 36.4559362 -20.19426507 30.30021804 -16.09375 24.12109375 C-15.33559998 22.9794426 -15.33559998 22.9794426 -14.56213379 21.81472778 C-12.051662 18.0332357 -9.54537034 14.24906461 -7.04492188 10.4609375 C-6.13423348 9.08716076 -5.22343185 7.71345907 -4.3125 6.33984375 C-3.89045288 5.69744247 -3.46840576 5.0550412 -3.03356934 4.39317322 C-2.04844016 2.91112514 -1.02810021 1.45256874 0 0 Z M-9 30 C-10.19048157 31.65594035 -11.33067623 33.34799131 -12.453125 35.05078125 C-12.81624786 35.59895508 -13.17937073 36.14712891 -13.55349731 36.71191406 C-14.35811246 37.9270069 -15.16122251 39.14309732 -15.96307373 40.36001587 C-18.21493083 43.77646277 -20.4789371 47.1848443 -22.7421875 50.59375 C-23.23486115 51.33627518 -23.72753479 52.07880035 -24.23513794 52.84382629 C-30.56224608 62.368941 -36.9728381 71.83775774 -43.375 81.3125 C-52.20802999 94.38940357 -61.01120673 107.48492666 -69.75 120.625 C-76.46257316 130.71654089 -83.21958598 140.77459884 -90.04907227 150.78759766 C-108.38443088 177.6840058 -126.53124913 204.70957684 -144.55104065 231.81826782 C-147.03227537 235.54978647 -149.52230514 239.27524583 -152.01953125 242.99609375 C-152.59888428 243.86032959 -153.1782373 244.72456543 -153.77514648 245.61499023 C-154.80017652 247.14307178 -155.82687945 248.67003328 -156.85571289 250.19555664 C-159.02356394 252.88658899 -159.02356394 252.88658899 -160 256 C-109.84 256 -59.68 256 -8 256 C-8 181.42 -8 106.84 -8 30 C-8.33 30 -8.66 30 -9 30 Z "
              fill="#0084d1"
              transform="translate(2872,561)"
            />
            <path
              d="M0 0 C0.33 0 0.66 0 1 0 C1 87.45 1 174.9 1 265 C-57.74 265 -116.48 265 -177 265 C-175.49562878 261.23907195 -174.33091369 258.77133778 -172.10546875 255.5546875 C-171.49485596 254.66523437 -170.88424316 253.77578125 -170.25512695 252.859375 C-169.57281006 251.87453125 -168.89049316 250.8896875 -168.1875 249.875 C-166.64220713 247.62308793 -165.09796327 245.37048024 -163.5546875 243.1171875 C-163.12901993 242.4966449 -162.70335236 241.87610229 -162.26478577 241.23675537 C-156.06487217 232.19118747 -149.94275658 223.09284041 -143.8125 214 C-143.18826141 213.07453369 -142.56402283 212.14906738 -141.92086792 211.19555664 C-133.65978381 198.94682612 -125.43282388 186.67613736 -117.25 174.375 C-110.53712075 164.28365941 -103.78041732 154.225406 -96.95092773 144.21240234 C-89.87301994 133.82971495 -82.83970816 123.4170552 -75.8125 113 C-75.18644867 112.07199585 -74.56039734 111.1439917 -73.91537476 110.18786621 C-65.19823762 97.26271252 -56.52270084 84.31072496 -47.88955688 71.3293457 C-41.48818687 61.70514689 -35.02851371 52.12375482 -28.50488281 42.58178711 C-24.3250909 36.4559362 -20.19426507 30.30021804 -16.09375 24.12109375 C-15.33559998 22.9794426 -15.33559998 22.9794426 -14.56213379 21.81472778 C-12.051662 18.0332357 -9.54537034 14.24906461 -7.04492188 10.4609375 C-6.13423348 9.08716076 -5.22343185 7.71345907 -4.3125 6.33984375 C-3.89045288 5.69744247 -3.46840576 5.0550412 -3.03356934 4.39317322 C-2.04844016 2.91112514 -1.02810021 1.45256874 0 0 Z M-9 30 C-10.19048157 31.65594035 -11.33067623 33.34799131 -12.453125 35.05078125 C-12.81624786 35.59895508 -13.17937073 36.14712891 -13.55349731 36.71191406 C-14.35811246 37.9270069 -15.16122251 39.14309732 -15.96307373 40.36001587 C-18.21493083 43.77646277 -20.4789371 47.1848443 -22.7421875 50.59375 C-23.23486115 51.33627518 -23.72753479 52.07880035 -24.23513794 52.84382629 C-30.56224608 62.368941 -36.9728381 71.83775774 -43.375 81.3125 C-52.20802999 94.38940357 -61.01120673 107.48492666 -69.75 120.625 C-76.46257316 130.71654089 -83.21958598 140.77459884 -90.04907227 150.78759766 C-108.38443088 177.6840058 -126.53124913 204.70957684 -144.55104065 231.81826782 C-147.03227537 235.54978647 -149.52230514 239.27524583 -152.01953125 242.99609375 C-152.59888428 243.86032959 -153.1782373 244.72456543 -153.77514648 245.61499023 C-154.80017652 247.14307178 -155.82687945 248.67003328 -156.85571289 250.19555664 C-159.02356394 252.88658899 -159.02356394 252.88658899 -160 256 C-109.84 256 -59.68 256 -8 256 C-8 181.42 -8 106.84 -8 30 C-8.33 30 -8.66 30 -9 30 Z "
              fill="#0084d1"
              transform="translate(600,561)"
            />
            <path
              d="M0 0 C3.86695903 0.53707764 5.97060499 1.58554629 9 4 C8.58862793 4.87285645 8.17725586 5.74571289 7.75341797 6.64501953 C6.14608521 10.05588778 4.53951069 13.4671128 2.93310547 16.87841797 C2.25295673 18.3225178 1.57263282 19.76653514 0.89208984 21.21044922 C0.57062988 21.89252441 0.24916992 22.57459961 -0.08203125 23.27734375 C-0.41504242 23.98112152 -0.74805359 24.68489929 -1.09115601 25.41000366 C-1.80567548 26.93472915 -2.50942926 28.46453243 -3.20401001 29.9984436 C-5.45948819 34.93394995 -7.91863792 39.64718933 -10.63037109 44.34912109 C-22.87899304 66.49606008 -22.83862201 86.36025966 -22.375 111.375 C-22.25125 124.45125 -22.1275 137.5275 -22 151 C29.48 151 80.96 151 134 151 C134 153.97 134 156.94 134 160 C79.55 160 25.1 160 -31 160 C-31.28875 144.923125 -31.5775 129.84625 -31.875 114.3125 C-32.00245605 109.61684814 -32.12991211 104.92119629 -32.26123047 100.08325195 C-32.63107949 76.58791284 -31.34459249 58.89935388 -18.67156982 38.72109985 C-16.42043568 35.05654412 -14.65256281 31.25710923 -12.9296875 27.32421875 C-12.40632813 26.19048828 -11.88296875 25.05675781 -11.34375 23.88867188 C-10.8590625 22.83228516 -10.374375 21.77589844 -9.875 20.6875 C-6.67862653 13.73971776 -3.4701874 6.81584655 0 0 Z "
              fill="#0084d1"
              transform="translate(2305,941)"
            />
            <path
              d="M0 0 C3.86695903 0.53707764 5.97060499 1.58554629 9 4 C8.58862793 4.87285645 8.17725586 5.74571289 7.75341797 6.64501953 C6.14608521 10.05588778 4.53951069 13.4671128 2.93310547 16.87841797 C2.25295673 18.3225178 1.57263282 19.76653514 0.89208984 21.21044922 C0.57062988 21.89252441 0.24916992 22.57459961 -0.08203125 23.27734375 C-0.41504242 23.98112152 -0.74805359 24.68489929 -1.09115601 25.41000366 C-1.80567548 26.93472915 -2.50942926 28.46453243 -3.20401001 29.9984436 C-5.45948819 34.93394995 -7.91863792 39.64718933 -10.63037109 44.34912109 C-22.87899304 66.49606008 -22.83862201 86.36025966 -22.375 111.375 C-22.25125 124.45125 -22.1275 137.5275 -22 151 C29.48 151 80.96 151 134 151 C134 153.97 134 156.94 134 160 C79.55 160 25.1 160 -31 160 C-31.28875 144.923125 -31.5775 129.84625 -31.875 114.3125 C-32.00245605 109.61684814 -32.12991211 104.92119629 -32.26123047 100.08325195 C-32.63107949 76.58791284 -31.34459249 58.89935388 -18.67156982 38.72109985 C-16.42043568 35.05654412 -14.65256281 31.25710923 -12.9296875 27.32421875 C-12.40632813 26.19048828 -11.88296875 25.05675781 -11.34375 23.88867188 C-10.8590625 22.83228516 -10.374375 21.77589844 -9.875 20.6875 C-6.67862653 13.73971776 -3.4701874 6.81584655 0 0 Z "
              fill="#0084d1"
              transform="translate(33,941)"
            />
            <path
              d="M0 0 C1.36824323 -0.0001808 1.36824323 -0.0001808 2.76412773 -0.00036526 C5.72542611 0.00038289 8.68666205 0.00800667 11.64794922 0.01586914 C13.47273732 0.01733886 15.29752584 0.01835939 17.12231445 0.0189209 C23.89909496 0.02417026 30.67586645 0.03813138 37.45263672 0.05102539 C52.59138672 0.07165039 67.73013672 0.09227539 83.32763672 0.11352539 C83.32763672 54.89352539 83.32763672 109.67352539 83.32763672 166.11352539 C80.35763672 166.11352539 77.38763672 166.11352539 74.32763672 166.11352539 C74.32763672 114.30352539 74.32763672 62.49352539 74.32763672 9.11352539 C61.56076172 8.98977539 48.79388672 8.86602539 35.64013672 8.73852539 C29.69300659 8.62565186 29.69300659 8.62565186 23.62573242 8.51049805 C1.78791346 8.38501805 -14.01332634 11.19251122 -32.83847046 22.45001221 C-36.56417434 24.63702417 -40.40151064 26.438625 -44.34814453 28.18383789 C-45.481875 28.70719727 -46.61560547 29.23055664 -47.78369141 29.76977539 C-48.84007813 30.25446289 -49.89646484 30.73915039 -50.98486328 31.23852539 C-53.25230548 32.28167727 -55.5192473 33.32591762 -57.78564453 34.37133789 C-58.80094238 34.83958984 -59.81624023 35.3078418 -60.86230469 35.7902832 C-63.38069882 36.97618209 -65.86329557 38.2113221 -68.34033203 39.48071289 C-71.67236328 41.11352539 -71.67236328 41.11352539 -73.67236328 41.11352539 C-74.66236328 38.14352539 -75.65236328 35.17352539 -76.67236328 32.11352539 C-55.44554847 22.0295966 -34.20520235 11.98057653 -12.86669922 2.13476562 C-8.42108714 0.06578528 -4.88331247 -0.02055789 0 0 Z "
              fill="#0084d1"
              transform="translate(3079.67236328125,1.886474609375)"
            />
            <path
              d="M0 0 C1.36824323 -0.0001808 1.36824323 -0.0001808 2.76412773 -0.00036526 C5.72542611 0.00038289 8.68666205 0.00800667 11.64794922 0.01586914 C13.47273732 0.01733886 15.29752584 0.01835939 17.12231445 0.0189209 C23.89909496 0.02417026 30.67586645 0.03813138 37.45263672 0.05102539 C52.59138672 0.07165039 67.73013672 0.09227539 83.32763672 0.11352539 C83.32763672 54.89352539 83.32763672 109.67352539 83.32763672 166.11352539 C80.35763672 166.11352539 77.38763672 166.11352539 74.32763672 166.11352539 C74.32763672 114.30352539 74.32763672 62.49352539 74.32763672 9.11352539 C61.56076172 8.98977539 48.79388672 8.86602539 35.64013672 8.73852539 C29.69300659 8.62565186 29.69300659 8.62565186 23.62573242 8.51049805 C1.78791346 8.38501805 -14.01332634 11.19251122 -32.83847046 22.45001221 C-36.56417434 24.63702417 -40.40151064 26.438625 -44.34814453 28.18383789 C-45.481875 28.70719727 -46.61560547 29.23055664 -47.78369141 29.76977539 C-48.84007812 30.25446289 -49.89646484 30.73915039 -50.98486328 31.23852539 C-53.25230548 32.28167727 -55.5192473 33.32591762 -57.78564453 34.37133789 C-58.80094238 34.83958984 -59.81624023 35.3078418 -60.86230469 35.7902832 C-63.38069882 36.97618209 -65.86329557 38.2113221 -68.34033203 39.48071289 C-71.67236328 41.11352539 -71.67236328 41.11352539 -73.67236328 41.11352539 C-74.66236328 38.14352539 -75.65236328 35.17352539 -76.67236328 32.11352539 C-55.44554847 22.0295966 -34.20520235 11.98057653 -12.86669922 2.13476562 C-8.42108714 0.06578528 -4.88331247 -0.02055789 0 0 Z "
              fill="#0084d1"
              transform="translate(807.67236328125,1.886474609375)"
            />
            <path
              d="M0 0 C3.70276569 1.23425523 4.5035057 2.62245549 6.875 5.6875 C14.76230994 15.55628748 23.24721515 24.94492214 33 33 C33.88171875 33.78117187 34.7634375 34.56234375 35.671875 35.3671875 C97.20414378 89.62782661 182.15909068 107.99023373 262.12744141 109.7097168 C263.33706543 109.73590088 264.54668945 109.76208496 265.79296875 109.7890625 C266.8502417 109.80662598 267.90751465 109.82418945 268.99682617 109.84228516 C272.06213351 110.00326301 274.98458563 110.43800951 278 111 C278 113.97 278 116.94 278 120 C193.06186562 118.7783056 107.80349789 104.63046576 39 51 C38.12214844 50.31679687 37.24429687 49.63359375 36.33984375 48.9296875 C20.803012 36.52768042 5.44438078 22.34911541 -6 6 C-4 4 -2 2 0 0 Z "
              fill="#0084d1"
              transform="translate(1212,1270)"
            />
            <path
              d="M0 0 C0.59355614 2.64860427 0.74209269 5.29197322 1 8 C-3.87189834 9.65949037 -8.74927454 11.24059538 -13.6875 12.69140625 C-50.68254874 23.60027795 -87.04382693 39.23990425 -117 64 C-117.52996582 64.43521973 -118.05993164 64.87043945 -118.60595703 65.31884766 C-164.0189468 102.71223982 -191.79626341 150.50944168 -210 206 C-212.64 205.67 -215.28 205.34 -218 205 C-219.01473211 201.86729941 -218.97952082 200.04434279 -217.953125 196.9296875 C-217.69128418 196.12942139 -217.42944336 195.32915527 -217.15966797 194.50463867 C-216.85947754 193.63685791 -216.55928711 192.76907715 -216.25 191.875 C-215.77844482 190.4969519 -215.77844482 190.4969519 -215.29736328 189.09106445 C-203.84611704 156.40013187 -187.87460318 125.9180548 -166 99 C-165.57879883 98.47583496 -165.15759766 97.95166992 -164.72363281 97.41162109 C-152.14088647 81.85912142 -137.88745553 67.00219892 -121.67431641 55.22558594 C-119.93196652 53.95020005 -118.22126478 52.639281 -116.51171875 51.3203125 C-106.52065032 43.6912372 -95.9069534 37.23003066 -85 31 C-84.28618164 30.59007813 -83.57236328 30.18015625 -82.83691406 29.7578125 C-65.55576098 19.93466778 -47.06242535 12.84443054 -28.25 6.5625 C-26.39532104 5.94290405 -26.39532104 5.94290405 -24.50317383 5.31079102 C-3.27105599 -1.635528 -3.27105599 -1.635528 0 0 Z "
              fill="#0084d1"
              transform="translate(1373,48)"
            />
            <path
              d="M0 0 C2.97 0 5.94 0 9 0 C9 102.63 9 205.26 9 311 C6.03 311 3.06 311 0 311 C0 208.37 0 105.74 0 0 Z "
              fill="#0084d1"
              transform="translate(2079,498)"
            />
            <path
              d="M0 0 C0 2.97 0 5.94 0 9 C-2.19076172 9.14695312 -2.19076172 9.14695312 -4.42578125 9.296875 C-24.78755319 10.57562269 -24.78755319 10.57562269 -41 22 C-51.97145759 36.99041397 -52.29557554 57.19746082 -52.31884766 75.01123047 C-52.32817002 76.6684517 -52.33834202 78.32566834 -52.34928894 79.98287964 C-52.3763432 84.43644434 -52.39166451 88.88997787 -52.40471697 93.34360266 C-52.42045632 98.01475908 -52.44721147 102.68585282 -52.4727478 107.35696411 C-52.51934579 116.18213313 -52.55618114 125.0073142 -52.58942068 133.83254254 C-52.62777701 143.8883376 -52.67715132 153.94406939 -52.72740483 163.99981093 C-52.83044204 184.66649378 -52.91979327 205.33321676 -53 226 C-55.97 226 -58.94 226 -62 226 C-62.07031134 204.1456493 -62.12309602 182.29131745 -62.15543652 160.4368763 C-62.17085683 150.28779426 -62.19185305 140.1387828 -62.22631836 129.98974609 C-62.25636967 121.13622864 -62.27561007 112.28276234 -62.28226548 103.42919528 C-62.28615129 98.748215 -62.29518067 94.06738097 -62.31719017 89.38644791 C-62.3378049 84.96563959 -62.34378429 80.54503547 -62.33932304 76.12418365 C-62.34013723 74.51595061 -62.34595221 72.90770954 -62.35761642 71.29951859 C-62.500515 50.55051359 -60.26538963 26.86699461 -45.27734375 11.19921875 C-32.59999181 -0.43853258 -16.21467963 -0.19226893 0 0 Z "
              fill="#0084d1"
              transform="translate(1488,308)"
            />
            <path
              d="M0 0 C2.97 0 5.94 0 9 0 C9.07040438 21.13334786 9.12314093 42.2666761 9.15543652 63.40011787 C9.17083739 73.21502757 9.1917955 83.02986396 9.22631836 92.84472656 C9.25643019 101.4096901 9.27562411 109.9746005 9.28226548 118.53961551 C9.28614126 123.06534787 9.29510427 127.59092832 9.31719017 132.11661148 C9.61767361 196.25788996 9.61767361 196.25788996 -6.87890625 214.0234375 C-19.89383176 226.09599071 -36.163888 226.51539118 -53 226 C-53 223.03 -53 220.06 -53 217 C-51.91203125 216.96261719 -50.8240625 216.92523437 -49.703125 216.88671875 C-36.01016369 216.31780676 -22.81969039 215.35004494 -12.8125 204.9375 C-0.54137453 189.43186591 -0.86582574 166.59797653 -0.79467773 147.81005859 C-0.78508194 146.19283813 -0.7750709 144.57562008 -0.76467896 142.95840454 C-0.73780798 138.59551508 -0.71670283 134.23261499 -0.69667697 129.86968946 C-0.67470664 125.29995797 -0.64737235 120.73025854 -0.62062073 116.16055298 C-0.57084241 107.51940759 -0.52584887 98.87824426 -0.48259836 90.237064 C-0.43309843 80.39419286 -0.37822788 70.55135392 -0.32291877 60.70851398 C-0.20932706 40.47237269 -0.10243896 20.23620062 0 0 Z "
              fill="#0084d1"
              transform="translate(1789,890)"
            />
            <path
              d="M0 0 C4.67394807 3.260894 8.19592213 7.31548247 9.6875 12.875 C10.36131945 18.82707183 9.01623029 23.01932921 5.6875 27.875 C1.62902427 32.16659966 -2.17094914 34.01368095 -8.0625 34.1875 C-13.35219899 34.12581255 -16.06835513 33.01566721 -20.3125 29.875 C-25.39748322 24.25475538 -25.65948921 20.53521409 -25.59375 13.08203125 C-25.11320465 7.60247943 -22.68604193 5.11453784 -18.75 1.5625 C-13.18735089 -2.28856477 -6.24876225 -2.12222114 0 0 Z "
              fill="#0084d1"
              transform="translate(1163.3125,558.125)"
            />
            <path
              d="M0 0 C4.67394807 3.260894 8.19592213 7.31548247 9.6875 12.875 C10.36131945 18.82707183 9.01623029 23.01932921 5.6875 27.875 C1.8385116 31.94507912 -1.87390037 33.99830373 -7.5 34.1875 C-12.50511432 34.12228678 -16.22937234 32.74796992 -20.3125 29.875 C-25.45296698 24.33911248 -25.65900479 20.48029277 -25.59375 13.08203125 C-25.11320465 7.60247943 -22.68604193 5.11453784 -18.75 1.5625 C-13.18735089 -2.28856477 -6.24876225 -2.12222114 0 0 Z "
              fill="#0084d1"
              transform="translate(1163.3125,409.125)"
            />
            <path
              d="M0 0 C4.47141314 3.93910205 6.72009352 7.34419286 7.5625 13.25 C7.94325804 19.43499651 6.24818994 23.43958853 2.1875 28.125 C-2.90984741 32.47639413 -6.86217645 32.7493216 -13.4609375 32.62890625 C-18.73451314 32.05630621 -21.30198274 29.53051959 -24.6875 25.6875 C-28.3338208 20.5556411 -27.93343359 15.45526946 -27.375 9.3125 C-25.71200511 3.94340222 -22.24354121 0.94962649 -17.375 -1.6875 C-11.53057595 -3.59118169 -5.41336325 -2.70668162 0 0 Z "
              fill="#0084d1"
              transform="translate(1165.375,335.6875)"
            />
            <path
              d="M0 0 C7.2595735 6.71510548 7.2595735 6.71510548 7.73828125 11.88671875 C7.8995878 18.6531039 7.75780167 22.9342242 3.5 28.3125 C-1.29104626 32.64725614 -6.20297336 33.54608368 -12.5 33.3125 C-16.99451396 32.49957921 -20.30150886 30.90503392 -23.375 27.5 C-27.16130349 21.82054477 -27.96845415 17.47445998 -27.1015625 10.78125 C-25.84710729 5.63309614 -23.09193245 2.51615625 -18.9375 -0.625 C-12.54567636 -2.60065458 -6.08801902 -2.93529488 0 0 Z "
              fill="#0084d1"
              transform="translate(3164.5,298.6875)"
            />
            <path
              d="M0 0 C7.2595735 6.71510548 7.2595735 6.71510548 7.73828125 11.88671875 C7.8995878 18.6531039 7.75780167 22.9342242 3.5 28.3125 C-1.29104626 32.64725614 -6.20297336 33.54608368 -12.5 33.3125 C-16.99451396 32.49957921 -20.30150886 30.90503392 -23.375 27.5 C-27.16130349 21.82054477 -27.96845415 17.47445998 -27.1015625 10.78125 C-25.84710729 5.63309614 -23.09193245 2.51615625 -18.9375 -0.625 C-12.54567636 -2.60065458 -6.08801902 -2.93529488 0 0 Z "
              fill="#0084d1"
              transform="translate(892.5,298.6875)"
            />
            <path
              d="M0 0 C4.05949084 2.27234447 6.60375757 5.14501515 8.6875 9.3125 C9.18078755 15.16725711 9.54494288 20.50234281 7 25.875 C3.23175356 29.84693544 0.07426108 33.00938197 -5.58203125 33.515625 C-10.92942994 33.61419456 -14.78111245 33.47393318 -19.3125 30.3125 C-23.6433344 25.78480949 -25.98339671 22.21957903 -26.6875 16 C-26.07601366 9.98705104 -23.850204 5.35572516 -19.25 1.375 C-13.33843852 -2.77567083 -6.52635186 -3.03096491 0 0 Z "
              fill="#0084d1"
              transform="translate(3163.3125,223.6875)"
            />
            <path
              d="M0 0 C4.05949084 2.27234447 6.60375757 5.14501515 8.6875 9.3125 C9.18078755 15.16725711 9.54494288 20.50234281 7 25.875 C3.23175356 29.84693544 0.07426108 33.00938197 -5.58203125 33.515625 C-10.92942994 33.61419456 -14.78111245 33.47393318 -19.3125 30.3125 C-23.6433344 25.78480949 -25.98339671 22.21957903 -26.6875 16 C-26.07601366 9.98705104 -23.850204 5.35572516 -19.25 1.375 C-13.33843852 -2.77567083 -6.52635186 -3.03096491 0 0 Z "
              fill="#0084d1"
              transform="translate(891.3125,223.6875)"
            />
            <path
              d="M0 0 C3.56609084 2.45119326 5.41158928 5.16054909 6.76171875 9.2109375 C7.25160728 14.77639241 7.52986416 19.61774702 5.07421875 24.7109375 C-1.64415952 31.97404914 -1.64415952 31.97404914 -6.84765625 32.44921875 C-15.26997289 32.6482536 -18.85383807 31.36975114 -25.05078125 25.5859375 C-28.17716466 21.57931022 -28.49095287 17.16483251 -28.23828125 12.2109375 C-27.41052602 7.67799217 -25.82712294 4.40595739 -22.36328125 1.3359375 C-14.84867129 -3.77399727 -7.96713833 -4.41401377 0 0 Z "
              fill="#0084d1"
              transform="translate(3165.23828125,522.7890625)"
            />
            <path
              d="M0 0 C3.56609084 2.45119326 5.41158928 5.16054909 6.76171875 9.2109375 C7.25160728 14.77639241 7.52986416 19.61774702 5.07421875 24.7109375 C-1.64415952 31.97404914 -1.64415952 31.97404914 -6.84765625 32.44921875 C-15.26997289 32.6482536 -18.85383807 31.36975114 -25.05078125 25.5859375 C-28.17716466 21.57931022 -28.49095287 17.16483251 -28.23828125 12.2109375 C-27.41052602 7.67799217 -25.82712294 4.40595739 -22.36328125 1.3359375 C-14.84867129 -3.77399727 -7.96713833 -4.41401377 0 0 Z "
              fill="#0084d1"
              transform="translate(893.23828125,522.7890625)"
            />
            <path
              d="M0 0 C7.2595735 6.71510548 7.2595735 6.71510548 7.73828125 11.88671875 C7.8995878 18.6531039 7.75780167 22.9342242 3.5 28.3125 C-2.11462377 32.75741049 -6.38843996 33.90513 -13.5 33.3125 C-19.97230229 31.08651192 -23.78448418 27.82522287 -26.8125 21.625 C-28.0466442 15.67866886 -27.51177336 10.41387543 -24.875 4.9375 C-18.21792169 -2.4203234 -9.11321467 -4.39387136 0 0 Z "
              fill="#0084d1"
              transform="translate(3164.5,447.6875)"
            />
            <path
              d="M0 0 C7.2595735 6.71510548 7.2595735 6.71510548 7.73828125 11.88671875 C7.8995878 18.6531039 7.75780167 22.9342242 3.5 28.3125 C-2.11462377 32.75741049 -6.38843996 33.90513 -13.5 33.3125 C-19.97230229 31.08651192 -23.78448418 27.82522287 -26.8125 21.625 C-28.0466442 15.67866886 -27.51177336 10.41387543 -24.875 4.9375 C-18.21792169 -2.4203234 -9.11321467 -4.39387136 0 0 Z "
              fill="#0084d1"
              transform="translate(892.5,447.6875)"
            />
            <path
              d="M0 0 C4.15556809 2.37695216 7.10286946 4.88373756 8.8125 9.4375 C9.64954702 15.37831156 9.7155244 20.53111516 7.125 26 C3.25334671 30.08093184 0.10464011 33.12224011 -5.67578125 33.67578125 C-11.76172375 33.83571612 -15.41952494 33.62401469 -20.1875 29.4375 C-20.93 28.81875 -21.6725 28.2 -22.4375 27.5625 C-25.83538817 23.43649294 -26.38320307 19.64696936 -26.0625 14.4375 C-25.46524319 9.86539614 -24.29013351 6.95940831 -21.1875 3.4375 C-14.52297631 -1.59489544 -7.82922086 -3.46976834 0 0 Z "
              fill="#0084d1"
              transform="translate(3163.1875,372.5625)"
            />
            <path
              d="M0 0 C4.15556809 2.37695216 7.10286946 4.88373756 8.8125 9.4375 C9.64954702 15.37831156 9.7155244 20.53111516 7.125 26 C3.25334671 30.08093184 0.10464011 33.12224011 -5.67578125 33.67578125 C-11.76172375 33.83571612 -15.41952494 33.62401469 -20.1875 29.4375 C-20.93 28.81875 -21.6725 28.2 -22.4375 27.5625 C-25.83538817 23.43649294 -26.38320307 19.64696936 -26.0625 14.4375 C-25.46524319 9.86539614 -24.29013351 6.95940831 -21.1875 3.4375 C-14.52297631 -1.59489544 -7.82922086 -3.46976834 0 0 Z "
              fill="#0084d1"
              transform="translate(891.1875,372.5625)"
            />
            <path
              d="M0 0 C4.45150913 3.63746001 6.17492669 6.9440265 7 12.625 C7.43777512 18.76297198 5.76162885 22.69252373 1.9375 27.5 C-2.61540729 31.14232583 -7.08915626 33.15087398 -13 32.6875 C-19.40882983 31.13697665 -23.09706891 28.0670882 -26.875 22.75 C-29.17125906 18.15748188 -28.64761744 11.37969187 -27.2265625 6.54296875 C-24.79966515 1.78251625 -21.5339711 -0.08690627 -16.875 -2.25 C-11.02756095 -4.0780571 -5.10413374 -3.44610303 0 0 Z "
              fill="#0084d1"
              transform="translate(1165.875,485.25)"
            />
            <path
              d="M0 0 C4.91971102 5.21787532 6.24059917 10.07466433 6.0625 17.1875 C4.09876418 23.84238251 0.77774144 27.62101455 -5.1875 31.0625 C-11.08058287 32.83042486 -16.21937778 32.29820393 -21.75 29.5625 C-25.38793818 26.85187939 -27.63381408 24.51512013 -28.9375 20.1875 C-29.67185558 14.54734631 -29.74351596 9.8592368 -27.25 4.6875 C-19.42409826 -3.77293431 -10.17269477 -6.27676911 0 0 Z "
              fill="#0084d1"
              transform="translate(1166.9375,634.8125)"
            />
            <path
              d="M0 0 C2.8605891 1.35937085 4.85927699 2.64520469 7 5 C5.49315032 8.53239023 3.44633388 10.7962166 0.73388672 13.49316406 C-0.58725632 14.81408051 -0.58725632 14.81408051 -1.93508911 16.16168213 C-2.89672351 17.11310431 -3.8584672 18.06441603 -4.8203125 19.015625 C-5.80438107 19.99596129 -6.78800742 20.97674168 -7.77120972 21.95794678 C-10.35442714 24.53354467 -12.94359512 27.10307857 -15.53405762 29.67138672 C-18.1786762 32.29551067 -20.8176101 34.92533771 -23.45703125 37.5546875 C-28.63248072 42.7087167 -33.81423122 47.85635157 -39 53 C-40.98 51.35 -42.96 49.7 -45 48 C-44.44827707 44.05549088 -42.62904374 42.26469294 -39.84741211 39.50683594 C-38.96657455 38.62622498 -38.085737 37.74561401 -37.1782074 36.83831787 C-36.21141209 35.88684175 -35.24445369 34.93553132 -34.27734375 33.984375 C-33.29162903 33.00425744 -32.30657603 32.02347397 -31.32215881 31.04205322 C-28.73288151 28.46421516 -26.13472118 25.89551421 -23.53460693 23.32861328 C-20.88157894 20.70630595 -18.2370522 18.07545622 -15.59179688 15.4453125 C-10.40281353 10.28847705 -5.20441608 5.14126485 0 0 Z "
              fill="#0084d1"
              transform="translate(2679,1064)"
            />
            <path
              d="M0 0 C2.8605891 1.35937085 4.85927699 2.64520469 7 5 C5.49315032 8.53239023 3.44633388 10.7962166 0.73388672 13.49316406 C-0.58725632 14.81408051 -0.58725632 14.81408051 -1.93508911 16.16168213 C-2.89672351 17.11310431 -3.8584672 18.06441603 -4.8203125 19.015625 C-5.80438107 19.99596129 -6.78800742 20.97674168 -7.77120972 21.95794678 C-10.35442714 24.53354467 -12.94359512 27.10307857 -15.53405762 29.67138672 C-18.1786762 32.29551067 -20.8176101 34.92533771 -23.45703125 37.5546875 C-28.63248072 42.7087167 -33.81423122 47.85635157 -39 53 C-40.98 51.35 -42.96 49.7 -45 48 C-44.44827707 44.05549088 -42.62904374 42.26469294 -39.84741211 39.50683594 C-38.96657455 38.62622498 -38.085737 37.74561401 -37.1782074 36.83831787 C-36.21141209 35.88684175 -35.24445369 34.93553132 -34.27734375 33.984375 C-33.29162903 33.00425744 -32.30657603 32.02347397 -31.32215881 31.04205322 C-28.73288151 28.46421516 -26.13472118 25.89551421 -23.53460693 23.32861328 C-20.88157894 20.70630595 -18.2370522 18.07545622 -15.59179688 15.4453125 C-10.40281353 10.28847705 -5.20441608 5.14126485 0 0 Z "
              fill="#0084d1"
              transform="translate(407,1064)"
            />
            <path
              d="M0 0 C5.79835896 4.81437438 11.12281785 9.99248432 16.43359375 15.3359375 C17.31153091 16.21528961 18.18946808 17.09464172 19.0940094 18.00064087 C21.87754412 20.78974058 24.65756769 23.58231018 27.4375 26.375 C29.33216665 28.2752542 31.2275963 30.17474653 33.12304688 32.07421875 C37.75135161 36.71350604 42.37678421 41.35564167 47 46 C45.64062915 48.8605891 44.35479531 50.85927699 42 53 C38.53688497 51.50727325 36.25900786 49.52783996 33.58276367 46.88916016 C32.71894577 46.04132965 31.85512787 45.19349915 30.96513367 44.31997681 C30.04206924 43.40227509 29.11900482 42.48457336 28.16796875 41.5390625 C27.20729429 40.5873573 26.24654387 39.63572878 25.28572083 38.68417358 C23.27733208 36.6922449 21.27335233 34.69599067 19.27172852 32.69726562 C16.70311844 30.13405864 14.11871399 27.58742597 11.53013134 25.04441261 C9.54262332 23.08659422 7.56641142 21.1176702 5.59319496 19.14545822 C4.18325756 17.74178341 2.76174229 16.34976948 1.34013367 14.95791626 C0.49207657 14.10378143 -0.35598053 13.24964661 -1.22973633 12.36962891 C-1.9837825 11.62065338 -2.73782867 10.87167786 -3.51472473 10.1000061 C-5 8 -5 8 -4.86454773 5.86752319 C-3.70769459 3.36858647 -2.02739293 1.83119361 0 0 Z "
              fill="#0084d1"
              transform="translate(2063,849)"
            />
            <path
              d="M0 0 C2.91237868 1.11623751 4.47337484 2.7722765 6.66851807 4.98634338 C7.98943451 6.30759972 7.98943451 6.30759972 9.33703613 7.6555481 C10.28851225 8.62234341 11.23982268 9.58930181 12.190979 10.55641174 C13.17109656 11.54212647 14.15188003 12.52717947 15.13330078 13.51159668 C17.71113884 16.10087398 20.2798398 18.69903431 22.84674072 21.29914856 C25.46904805 23.95217655 28.09989779 26.5967033 30.7300415 29.24195862 C35.88687695 34.43094196 41.03408916 39.62933941 46.175354 44.83375549 C44.81598315 47.6943446 43.53014931 49.69303248 41.175354 51.83375549 C37.71223897 50.34102874 35.43436186 48.36159546 32.75811768 45.72291565 C31.89429977 44.87508514 31.03048187 44.02725464 30.14048767 43.1537323 C29.21742325 42.23603058 28.29435883 41.31832886 27.34332275 40.37281799 C26.38264829 39.4211128 25.42189787 38.46948427 24.46107483 37.51792908 C22.45268608 35.52600039 20.44870634 33.52974616 18.44708252 31.53102112 C15.87847244 28.96781413 13.29406799 26.42118146 10.70548534 23.87816811 C8.71797733 21.92034971 6.74176543 19.95142569 4.76854897 17.97921371 C3.35861157 16.5755389 1.93709629 15.18352497 0.51548767 13.79167175 C-0.33256943 12.93753693 -1.18062653 12.0834021 -2.05438232 11.2033844 C-2.8084285 10.45440887 -3.56247467 9.70543335 -4.33937073 8.9337616 C-5.824646 6.83375549 -5.824646 6.83375549 -5.64231873 4.67393494 C-4.40720943 1.89431094 -3.30063754 -0.30072291 0 0 Z "
              fill="#0084d1"
              transform="translate(2063.8246459960938,904.1662445068359)"
            />
            <path
              d="M0 0 C2.31 1.98 4.62 3.96 7 6 C2.18562562 11.79835896 -2.99248432 17.12281785 -8.3359375 22.43359375 C-9.21528961 23.31153091 -10.09464172 24.18946808 -11.00064087 25.0940094 C-13.78974058 27.87754412 -16.58231018 30.65756769 -19.375 33.4375 C-21.2752542 35.33216665 -23.17474653 37.2275963 -25.07421875 39.12304688 C-29.71350604 43.75135161 -34.35564167 48.37678421 -39 53 C-41.31 51.02 -43.62 49.04 -46 47 C-41.18562562 41.20164104 -36.00751568 35.87718215 -30.6640625 30.56640625 C-29.78471039 29.68846909 -28.90535828 28.81053192 -27.99935913 27.9059906 C-25.21025942 25.12245588 -22.41768982 22.34243231 -19.625 19.5625 C-17.7247458 17.66783335 -15.82525347 15.7724037 -13.92578125 13.87695312 C-9.28649396 9.24864839 -4.64435833 4.62321579 0 0 Z "
              fill="#0084d1"
              transform="translate(2571,1064)"
            />
            <path
              d="M0 0 C2.31 1.98 4.62 3.96 7 6 C2.18562562 11.79835896 -2.99248432 17.12281785 -8.3359375 22.43359375 C-9.21528961 23.31153091 -10.09464172 24.18946808 -11.00064087 25.0940094 C-13.78974058 27.87754412 -16.58231018 30.65756769 -19.375 33.4375 C-21.2752542 35.33216665 -23.17474653 37.2275963 -25.07421875 39.12304688 C-29.71350604 43.75135161 -34.35564167 48.37678421 -39 53 C-41.31 51.02 -43.62 49.04 -46 47 C-41.18562562 41.20164104 -36.00751568 35.87718215 -30.6640625 30.56640625 C-29.78471039 29.68846909 -28.90535828 28.81053192 -27.99935913 27.9059906 C-25.21025942 25.12245588 -22.41768982 22.34243231 -19.625 19.5625 C-17.7247458 17.66783335 -15.82525347 15.7724037 -13.92578125 13.87695312 C-9.28649396 9.24864839 -4.64435833 4.62321579 0 0 Z "
              fill="#0084d1"
              transform="translate(2517,1064)"
            />
            <path
              d="M0 0 C2.31 1.98 4.62 3.96 7 6 C2.18562562 11.79835896 -2.99248432 17.12281785 -8.3359375 22.43359375 C-9.21528961 23.31153091 -10.09464172 24.18946808 -11.00064087 25.0940094 C-13.78974058 27.87754412 -16.58231018 30.65756769 -19.375 33.4375 C-21.2752542 35.33216665 -23.17474653 37.2275963 -25.07421875 39.12304688 C-29.71350604 43.75135161 -34.35564167 48.37678421 -39 53 C-41.31 51.02 -43.62 49.04 -46 47 C-41.18562562 41.20164104 -36.00751568 35.87718215 -30.6640625 30.56640625 C-29.78471039 29.68846909 -28.90535828 28.81053192 -27.99935913 27.9059906 C-25.21025942 25.12245588 -22.41768982 22.34243231 -19.625 19.5625 C-17.7247458 17.66783335 -15.82525347 15.7724037 -13.92578125 13.87695312 C-9.28649396 9.24864839 -4.64435833 4.62321579 0 0 Z "
              fill="#0084d1"
              transform="translate(299,1064)"
            />
            <path
              d="M0 0 C2.31 1.98 4.62 3.96 7 6 C2.18562562 11.79835896 -2.99248432 17.12281785 -8.3359375 22.43359375 C-9.21528961 23.31153091 -10.09464172 24.18946808 -11.00064087 25.0940094 C-13.78974058 27.87754412 -16.58231018 30.65756769 -19.375 33.4375 C-21.2752542 35.33216665 -23.17474653 37.2275963 -25.07421875 39.12304688 C-29.71350604 43.75135161 -34.35564167 48.37678421 -39 53 C-41.31 51.02 -43.62 49.04 -46 47 C-41.18562562 41.20164104 -36.00751568 35.87718215 -30.6640625 30.56640625 C-29.78471039 29.68846909 -28.90535828 28.81053192 -27.99935913 27.9059906 C-25.21025942 25.12245588 -22.41768982 22.34243231 -19.625 19.5625 C-17.7247458 17.66783335 -15.82525347 15.7724037 -13.92578125 13.87695312 C-9.28649396 9.24864839 -4.64435833 4.62321579 0 0 Z "
              fill="#0084d1"
              transform="translate(245,1064)"
            />
            <path
              d="M0 0 C3.48972003 1.49530324 5.73465395 3.49191662 8.40136719 6.17431641 C9.2619574 7.03505768 10.12254761 7.89579895 11.00921631 8.78262329 C11.92914368 9.71287323 12.84907104 10.64312317 13.796875 11.6015625 C14.75479097 12.56321086 15.71315114 13.52441694 16.67193604 14.48519897 C19.18835125 17.00923282 21.69870107 19.53921591 24.20782471 22.07049561 C26.77162441 24.6547919 29.34112918 27.23340199 31.91015625 29.8125 C36.94569457 34.86945697 41.9748456 39.93272256 47 45 C45.64062915 47.8605891 44.35479531 49.85927699 42 52 C38.51027997 50.50469676 36.26534605 48.50808338 33.59863281 45.82568359 C32.7380426 44.96494232 31.87745239 44.10420105 30.99078369 43.21737671 C30.07085632 42.28712677 29.15092896 41.35687683 28.203125 40.3984375 C27.24520903 39.43678914 26.28684886 38.47558306 25.32806396 37.51480103 C22.81164875 34.99076718 20.30129893 32.46078409 17.79217529 29.92950439 C15.22837559 27.3452081 12.65887082 24.76659801 10.08984375 22.1875 C5.05430543 17.13054303 0.0251544 12.06727744 -5 7 C-3.64062915 4.1394109 -2.35479531 2.14072301 0 0 Z "
              fill="#0084d1"
              transform="translate(2063,1066)"
            />
            <path
              d="M0 0 C2.31 1.98 4.62 3.96 7 6 C2.18562562 11.79835896 -2.99248432 17.12281785 -8.3359375 22.43359375 C-9.21528961 23.31153091 -10.09464172 24.18946808 -11.00064087 25.0940094 C-13.78974058 27.87754412 -16.58231018 30.65756769 -19.375 33.4375 C-21.2752542 35.33216665 -23.17474653 37.2275963 -25.07421875 39.12304688 C-29.71350604 43.75135161 -34.35564167 48.37678421 -39 53 C-40.98 51.35 -42.96 49.7 -45 48 C-44.44827707 44.05549088 -42.62904374 42.26469294 -39.84741211 39.50683594 C-38.96657455 38.62622498 -38.085737 37.74561401 -37.1782074 36.83831787 C-36.21141209 35.88684175 -35.24445369 34.93553132 -34.27734375 33.984375 C-33.29162903 33.00425744 -32.30657603 32.02347397 -31.32215881 31.04205322 C-28.73288151 28.46421516 -26.13472118 25.89551421 -23.53460693 23.32861328 C-20.88157894 20.70630595 -18.2370522 18.07545622 -15.59179688 15.4453125 C-10.40281353 10.28847705 -5.20441608 5.14126485 0 0 Z "
              fill="#0084d1"
              transform="translate(2625,1064)"
            />
            <path
              d="M0 0 C2.31 1.98 4.62 3.96 7 6 C2.18562562 11.79835896 -2.99248432 17.12281785 -8.3359375 22.43359375 C-9.21528961 23.31153091 -10.09464172 24.18946808 -11.00064087 25.0940094 C-13.78974058 27.87754412 -16.58231018 30.65756769 -19.375 33.4375 C-21.2752542 35.33216665 -23.17474653 37.2275963 -25.07421875 39.12304688 C-29.71350604 43.75135161 -34.35564167 48.37678421 -39 53 C-40.98 51.35 -42.96 49.7 -45 48 C-44.44827707 44.05549088 -42.62904374 42.26469294 -39.84741211 39.50683594 C-38.96657455 38.62622498 -38.085737 37.74561401 -37.1782074 36.83831787 C-36.21141209 35.88684175 -35.24445369 34.93553132 -34.27734375 33.984375 C-33.29162903 33.00425744 -32.30657603 32.02347397 -31.32215881 31.04205322 C-28.73288151 28.46421516 -26.13472118 25.89551421 -23.53460693 23.32861328 C-20.88157894 20.70630595 -18.2370522 18.07545622 -15.59179688 15.4453125 C-10.40281353 10.28847705 -5.20441608 5.14126485 0 0 Z "
              fill="#0084d1"
              transform="translate(353,1064)"
            />
            <path
              d="M0 0 C3.48972003 1.49530324 5.73465395 3.49191662 8.40136719 6.17431641 C9.2619574 7.03505768 10.12254761 7.89579895 11.00921631 8.78262329 C11.92914368 9.71287323 12.84907104 10.64312317 13.796875 11.6015625 C14.75479097 12.56321086 15.71315114 13.52441694 16.67193604 14.48519897 C19.18835125 17.00923282 21.69870107 19.53921591 24.20782471 22.07049561 C26.77162441 24.6547919 29.34112918 27.23340199 31.91015625 29.8125 C36.94569457 34.86945697 41.9748456 39.93272256 47 45 C45.64062915 47.8605891 44.35479531 49.85927699 42 52 C38.51027997 50.50469676 36.26534605 48.50808338 33.59863281 45.82568359 C32.7380426 44.96494232 31.87745239 44.10420105 30.99078369 43.21737671 C30.07085632 42.28712677 29.15092896 41.35687683 28.203125 40.3984375 C27.24520903 39.43678914 26.28684886 38.47558306 25.32806396 37.51480103 C22.81164875 34.99076718 20.30129893 32.46078409 17.79217529 29.92950439 C15.22837559 27.3452081 12.65887082 24.76659801 10.08984375 22.1875 C5.05430543 17.13054303 0.0251544 12.06727744 -5 7 C-3.64062915 4.1394109 -2.35479531 2.14072301 0 0 Z "
              fill="#0084d1"
              transform="translate(2063,1012)"
            />
            <path
              d="M0 0 C3.48972003 1.49530324 5.73465395 3.49191662 8.40136719 6.17431641 C9.2619574 7.03505768 10.12254761 7.89579895 11.00921631 8.78262329 C11.92914368 9.71287323 12.84907104 10.64312317 13.796875 11.6015625 C14.75479097 12.56321086 15.71315114 13.52441694 16.67193604 14.48519897 C19.18835125 17.00923282 21.69870107 19.53921591 24.20782471 22.07049561 C26.77162441 24.6547919 29.34112918 27.23340199 31.91015625 29.8125 C36.94569457 34.86945697 41.9748456 39.93272256 47 45 C45.64062915 47.8605891 44.35479531 49.85927699 42 52 C38.51027997 50.50469676 36.26534605 48.50808338 33.59863281 45.82568359 C32.7380426 44.96494232 31.87745239 44.10420105 30.99078369 43.21737671 C30.07085632 42.28712677 29.15092896 41.35687683 28.203125 40.3984375 C27.24520903 39.43678914 26.28684886 38.47558306 25.32806396 37.51480103 C22.81164875 34.99076718 20.30129893 32.46078409 17.79217529 29.92950439 C15.22837559 27.3452081 12.65887082 24.76659801 10.08984375 22.1875 C5.05430543 17.13054303 0.0251544 12.06727744 -5 7 C-3.64062915 4.1394109 -2.35479531 2.14072301 0 0 Z "
              fill="#0084d1"
              transform="translate(2063,958)"
            />
          </svg>